<svg xmlns="http://www.w3.org/2000/svg" width="375" viewBox="0 0 375 375" height="375" version="1.0"><defs><clipPath id="a"><path d="M 147.894531 97.839844 L 214.644531 97.839844 L 214.644531 175.839844 L 147.894531 175.839844 Z M 147.894531 97.839844"/></clipPath><clipPath id="b"><path d="M 214.515625 158.589844 L 235.515625 158.589844 L 235.515625 174 L 214.515625 174 Z M 214.515625 158.589844"/></clipPath><clipPath id="c"><path d="M 232 172 L 235.515625 172 L 235.515625 175.839844 L 232 175.839844 Z M 232 172"/></clipPath><clipPath id="d"><path d="M 214.515625 172 L 218 172 L 218 175.839844 L 214.515625 175.839844 Z M 214.515625 172"/></clipPath><clipPath id="e"><path d="M 232 163 L 235.515625 163 L 235.515625 166 L 232 166 Z M 232 163"/></clipPath><clipPath id="f"><path d="M 214.515625 163 L 218 163 L 218 166 L 214.515625 166 Z M 214.515625 163"/></clipPath><clipPath id="g"><path d="M 214.515625 164 L 235.515625 164 L 235.515625 174 L 214.515625 174 Z M 214.515625 164"/></clipPath></defs><path fill="#FFF" d="M-37.5 -37.5H412.5V412.5H-37.5z"/><path fill="#FFF" d="M-37.5 -37.5H412.5V412.5H-37.5z"/><path fill="#222433" d="M-37.5 -37.5H412.5V412.5H-37.5z"/><path fill="#9C824A" d="M 167.046875 89.550781 C 152.753906 89.550781 141.171875 101.136719 141.171875 115.425781 C 141.171875 129.714844 152.753906 141.300781 167.046875 141.300781 C 181.335938 141.300781 192.921875 129.714844 192.921875 115.425781 C 192.921875 101.136719 181.335938 89.550781 167.046875 89.550781"/><g clip-path="url(#a)"><path fill="#FFF" d="M 204.5625 126.371094 L 204.5625 173.828125 L 199.359375 173.828125 L 199.359375 122.824219 Z M 190.007812 173.828125 L 186.449219 173.828125 L 186.449219 126.535156 L 190.007812 125.175781 Z M 190.007812 106.355469 L 190.007812 123.023438 L 184.429688 125.152344 L 184.429688 173.828125 L 183.179688 173.828125 L 183.179688 101.054688 Z M 171.59375 173.828125 L 167.375 173.828125 L 167.375 130.460938 L 171.59375 133.335938 Z M 214.636719 173.828125 L 206.582031 173.828125 L 206.582031 125.3125 L 199.359375 120.382812 L 198.484375 119.785156 L 197.34375 120.222656 L 192.027344 122.25 L 192.027344 105.367188 L 183.179688 98.507812 L 182.320312 97.839844 L 181.164062 98.339844 L 165.347656 105.203125 L 165.347656 127.863281 L 154.210938 132.113281 L 154.210938 173.828125 L 147.90625 173.828125 L 147.90625 175.839844 L 156.230469 175.839844 L 156.230469 133.5 L 165.347656 130.019531 L 165.347656 174.835938 L 165.359375 175.839844 L 173.609375 175.839844 L 173.609375 132.273438 L 167.371094 128.019531 L 167.367188 127.058594 L 167.367188 106.519531 L 181.164062 100.535156 L 181.164062 175.839844 L 192.027344 175.839844 L 192.027344 124.40625 L 197.34375 122.378906 L 197.34375 175.839844 L 214.636719 175.839844 L 214.636719 173.828125"/></g><g fill="#FFF"><g><g><path d="M 8.4375 -9.59375 C 9.207031 -9.59375 9.882812 -9.695312 10.46875 -9.90625 C 11.0625 -10.113281 11.554688 -10.398438 11.953125 -10.765625 C 12.359375 -11.128906 12.660156 -11.566406 12.859375 -12.078125 C 13.066406 -12.585938 13.171875 -13.148438 13.171875 -13.765625 C 13.171875 -15.035156 12.78125 -16.023438 12 -16.734375 C 11.21875 -17.453125 10.03125 -17.8125 8.4375 -17.8125 L 5.234375 -17.8125 L 5.234375 -9.59375 Z M 8.4375 -19.9375 C 9.695312 -19.9375 10.789062 -19.789062 11.71875 -19.5 C 12.65625 -19.207031 13.425781 -18.789062 14.03125 -18.25 C 14.644531 -17.71875 15.101562 -17.070312 15.40625 -16.3125 C 15.707031 -15.550781 15.859375 -14.703125 15.859375 -13.765625 C 15.859375 -12.835938 15.695312 -11.988281 15.375 -11.21875 C 15.050781 -10.445312 14.578125 -9.78125 13.953125 -9.21875 C 13.328125 -8.664062 12.550781 -8.234375 11.625 -7.921875 C 10.695312 -7.609375 9.632812 -7.453125 8.4375 -7.453125 L 5.234375 -7.453125 L 5.234375 0 L 2.546875 0 L 2.546875 -19.9375 Z M 8.4375 -19.9375" transform="translate(113.677 214.863)"/></g></g></g><g fill="#FFF"><g><g><path d="M 8.0625 -10.28125 C 8.84375 -10.28125 9.53125 -10.375 10.125 -10.5625 C 10.726562 -10.757812 11.234375 -11.03125 11.640625 -11.375 C 12.046875 -11.71875 12.347656 -12.128906 12.546875 -12.609375 C 12.753906 -13.097656 12.859375 -13.632812 12.859375 -14.21875 C 12.859375 -15.40625 12.46875 -16.300781 11.6875 -16.90625 C 10.90625 -17.507812 9.738281 -17.8125 8.1875 -17.8125 L 5.234375 -17.8125 L 5.234375 -10.28125 Z M 17.28125 0 L 14.890625 0 C 14.398438 0 14.035156 -0.191406 13.796875 -0.578125 L 8.625 -7.6875 C 8.46875 -7.914062 8.296875 -8.078125 8.109375 -8.171875 C 7.929688 -8.273438 7.65625 -8.328125 7.28125 -8.328125 L 5.234375 -8.328125 L 5.234375 0 L 2.546875 0 L 2.546875 -19.9375 L 8.1875 -19.9375 C 9.445312 -19.9375 10.535156 -19.804688 11.453125 -19.546875 C 12.367188 -19.296875 13.125 -18.929688 13.71875 -18.453125 C 14.320312 -17.972656 14.765625 -17.390625 15.046875 -16.703125 C 15.335938 -16.023438 15.484375 -15.265625 15.484375 -14.421875 C 15.484375 -13.710938 15.367188 -13.050781 15.140625 -12.4375 C 14.921875 -11.820312 14.597656 -11.269531 14.171875 -10.78125 C 13.753906 -10.300781 13.242188 -9.890625 12.640625 -9.546875 C 12.035156 -9.203125 11.347656 -8.941406 10.578125 -8.765625 C 10.921875 -8.566406 11.21875 -8.285156 11.46875 -7.921875 Z M 17.28125 0" transform="translate(133.416 214.863)"/></g></g></g><g fill="#FFF"><g><g><path d="M 5.234375 -11.203125 L 6.25 -11.203125 C 6.601562 -11.203125 6.882812 -11.242188 7.09375 -11.328125 C 7.3125 -11.421875 7.507812 -11.570312 7.6875 -11.78125 L 14.3125 -19.296875 C 14.5 -19.535156 14.691406 -19.703125 14.890625 -19.796875 C 15.097656 -19.890625 15.351562 -19.9375 15.65625 -19.9375 L 17.9375 -19.9375 L 10.34375 -11.359375 C 10.15625 -11.128906 9.972656 -10.941406 9.796875 -10.796875 C 9.628906 -10.660156 9.445312 -10.546875 9.25 -10.453125 C 9.5 -10.367188 9.722656 -10.242188 9.921875 -10.078125 C 10.128906 -9.921875 10.332031 -9.710938 10.53125 -9.453125 L 18.46875 0 L 16.125 0 C 15.945312 0 15.796875 -0.0078125 15.671875 -0.03125 C 15.546875 -0.0507812 15.4375 -0.0859375 15.34375 -0.140625 C 15.25 -0.191406 15.164062 -0.253906 15.09375 -0.328125 C 15.03125 -0.398438 14.96875 -0.484375 14.90625 -0.578125 L 8.03125 -8.484375 C 7.84375 -8.710938 7.640625 -8.875 7.421875 -8.96875 C 7.210938 -9.070312 6.890625 -9.125 6.453125 -9.125 L 5.234375 -9.125 L 5.234375 0 L 2.546875 0 L 2.546875 -19.9375 L 5.234375 -19.9375 Z M 5.234375 -11.203125" transform="translate(153.878 214.863)"/></g></g></g><g fill="#FFF"><g><g><path d="M 16.546875 -4.125 C 16.691406 -4.125 16.820312 -4.0625 16.9375 -3.9375 L 18 -2.78125 C 17.1875 -1.832031 16.195312 -1.09375 15.03125 -0.5625 C 13.863281 -0.0390625 12.457031 0.21875 10.8125 0.21875 C 9.382812 0.21875 8.082031 -0.0234375 6.90625 -0.515625 C 5.738281 -1.015625 4.742188 -1.710938 3.921875 -2.609375 C 3.097656 -3.503906 2.457031 -4.578125 2 -5.828125 C 1.550781 -7.078125 1.328125 -8.457031 1.328125 -9.96875 C 1.328125 -11.46875 1.5625 -12.84375 2.03125 -14.09375 C 2.5 -15.34375 3.160156 -16.414062 4.015625 -17.3125 C 4.878906 -18.21875 5.910156 -18.914062 7.109375 -19.40625 C 8.304688 -19.90625 9.628906 -20.15625 11.078125 -20.15625 C 12.492188 -20.15625 13.742188 -19.925781 14.828125 -19.46875 C 15.910156 -19.019531 16.867188 -18.40625 17.703125 -17.625 L 16.8125 -16.390625 C 16.75 -16.296875 16.671875 -16.21875 16.578125 -16.15625 C 16.492188 -16.101562 16.378906 -16.078125 16.234375 -16.078125 C 16.066406 -16.078125 15.863281 -16.164062 15.625 -16.34375 C 15.382812 -16.519531 15.066406 -16.71875 14.671875 -16.9375 C 14.285156 -17.164062 13.800781 -17.367188 13.21875 -17.546875 C 12.632812 -17.734375 11.914062 -17.828125 11.0625 -17.828125 C 10.03125 -17.828125 9.085938 -17.644531 8.234375 -17.28125 C 7.378906 -16.925781 6.644531 -16.410156 6.03125 -15.734375 C 5.414062 -15.054688 4.9375 -14.226562 4.59375 -13.25 C 4.25 -12.28125 4.078125 -11.1875 4.078125 -9.96875 C 4.078125 -8.71875 4.253906 -7.601562 4.609375 -6.625 C 4.960938 -5.65625 5.445312 -4.832031 6.0625 -4.15625 C 6.6875 -3.488281 7.414062 -2.976562 8.25 -2.625 C 9.09375 -2.269531 10.003906 -2.09375 10.984375 -2.09375 C 11.578125 -2.09375 12.109375 -2.128906 12.578125 -2.203125 C 13.054688 -2.273438 13.5 -2.382812 13.90625 -2.53125 C 14.3125 -2.675781 14.6875 -2.863281 15.03125 -3.09375 C 15.382812 -3.320312 15.734375 -3.59375 16.078125 -3.90625 C 16.234375 -4.050781 16.390625 -4.125 16.546875 -4.125 Z M 16.546875 -4.125" transform="translate(185.497 214.863)"/></g></g></g><g fill="#FFF"><g><g><path d="M 16.03125 -17.671875 L 9.578125 -17.671875 L 9.578125 0 L 6.890625 0 L 6.890625 -17.671875 L 0.421875 -17.671875 L 0.421875 -19.9375 L 16.03125 -19.9375 Z M 16.03125 -17.671875" transform="translate(207.114 214.863)"/></g></g></g><g fill="#FFF"><g><g><path d="M 8.0625 -10.28125 C 8.84375 -10.28125 9.53125 -10.375 10.125 -10.5625 C 10.726562 -10.757812 11.234375 -11.03125 11.640625 -11.375 C 12.046875 -11.71875 12.347656 -12.128906 12.546875 -12.609375 C 12.753906 -13.097656 12.859375 -13.632812 12.859375 -14.21875 C 12.859375 -15.40625 12.46875 -16.300781 11.6875 -16.90625 C 10.90625 -17.507812 9.738281 -17.8125 8.1875 -17.8125 L 5.234375 -17.8125 L 5.234375 -10.28125 Z M 17.28125 0 L 14.890625 0 C 14.398438 0 14.035156 -0.191406 13.796875 -0.578125 L 8.625 -7.6875 C 8.46875 -7.914062 8.296875 -8.078125 8.109375 -8.171875 C 7.929688 -8.273438 7.65625 -8.328125 7.28125 -8.328125 L 5.234375 -8.328125 L 5.234375 0 L 2.546875 0 L 2.546875 -19.9375 L 8.1875 -19.9375 C 9.445312 -19.9375 10.535156 -19.804688 11.453125 -19.546875 C 12.367188 -19.296875 13.125 -18.929688 13.71875 -18.453125 C 14.320312 -17.972656 14.765625 -17.390625 15.046875 -16.703125 C 15.335938 -16.023438 15.484375 -15.265625 15.484375 -14.421875 C 15.484375 -13.710938 15.367188 -13.050781 15.140625 -12.4375 C 14.921875 -11.820312 14.597656 -11.269531 14.171875 -10.78125 C 13.753906 -10.300781 13.242188 -9.890625 12.640625 -9.546875 C 12.035156 -9.203125 11.347656 -8.941406 10.578125 -8.765625 C 10.921875 -8.566406 11.21875 -8.285156 11.46875 -7.921875 Z M 17.28125 0" transform="translate(226.575 214.863)"/></g></g></g><g fill="#FFF"><g><g><path d="M 13.859375 -2.265625 L 13.859375 0 L 2.546875 0 L 2.546875 -19.9375 L 5.234375 -19.9375 L 5.234375 -2.265625 Z M 13.859375 -2.265625" transform="translate(247.037 214.863)"/></g></g></g><g fill="#FFF"><g><g><path d="M 0.984375 -6.09375 L 2.796875 -0.96875 L 2.859375 -0.96875 L 4.671875 -6.09375 L 5.453125 -6.09375 L 3.21875 0 L 2.453125 0 L 0.21875 -6.09375 Z M 0.984375 -6.09375" transform="translate(137.004 227.958)"/></g></g></g><g fill="#FFF"><g><g><path d="M 1.46875 -6.09375 L 1.46875 0 L 0.734375 0 L 0.734375 -6.09375 Z M 1.46875 -6.09375" transform="translate(144.778 227.958)"/></g></g></g><g fill="#FFF"><g><g><path d="M 4.0625 -4.5625 C 4.03125 -4.863281 3.882812 -5.097656 3.625 -5.265625 C 3.375 -5.429688 3.066406 -5.515625 2.703125 -5.515625 C 2.296875 -5.515625 1.96875 -5.421875 1.71875 -5.234375 C 1.476562 -5.046875 1.359375 -4.804688 1.359375 -4.515625 C 1.359375 -4.296875 1.421875 -4.117188 1.546875 -3.984375 C 1.679688 -3.847656 1.84375 -3.742188 2.03125 -3.671875 C 2.21875 -3.597656 2.382812 -3.539062 2.53125 -3.5 L 3.15625 -3.328125 C 3.3125 -3.285156 3.484375 -3.226562 3.671875 -3.15625 C 3.867188 -3.082031 4.054688 -2.984375 4.234375 -2.859375 C 4.421875 -2.734375 4.570312 -2.570312 4.6875 -2.375 C 4.800781 -2.175781 4.859375 -1.9375 4.859375 -1.65625 C 4.859375 -1.320312 4.769531 -1.019531 4.59375 -0.75 C 4.425781 -0.488281 4.175781 -0.28125 3.84375 -0.125 C 3.519531 0.03125 3.128906 0.109375 2.671875 0.109375 C 2.015625 0.109375 1.492188 -0.046875 1.109375 -0.359375 C 0.722656 -0.671875 0.507812 -1.070312 0.46875 -1.5625 L 1.234375 -1.5625 C 1.253906 -1.332031 1.332031 -1.144531 1.46875 -1 C 1.601562 -0.851562 1.773438 -0.742188 1.984375 -0.671875 C 2.191406 -0.597656 2.421875 -0.5625 2.671875 -0.5625 C 2.953125 -0.5625 3.203125 -0.601562 3.421875 -0.6875 C 3.648438 -0.78125 3.828125 -0.910156 3.953125 -1.078125 C 4.085938 -1.242188 4.15625 -1.441406 4.15625 -1.671875 C 4.15625 -1.867188 4.097656 -2.03125 3.984375 -2.15625 C 3.867188 -2.28125 3.71875 -2.382812 3.53125 -2.46875 C 3.351562 -2.550781 3.15625 -2.617188 2.9375 -2.671875 L 2.1875 -2.890625 C 1.707031 -3.023438 1.328125 -3.21875 1.046875 -3.46875 C 0.773438 -3.726562 0.640625 -4.0625 0.640625 -4.46875 C 0.640625 -4.8125 0.734375 -5.109375 0.921875 -5.359375 C 1.109375 -5.617188 1.359375 -5.816406 1.671875 -5.953125 C 1.984375 -6.097656 2.332031 -6.171875 2.71875 -6.171875 C 3.113281 -6.171875 3.460938 -6.097656 3.765625 -5.953125 C 4.078125 -5.816406 4.320312 -5.628906 4.5 -5.390625 C 4.675781 -5.148438 4.769531 -4.875 4.78125 -4.5625 Z M 4.0625 -4.5625" transform="translate(149.101 227.958)"/></g></g></g><g fill="#FFF"><g><g><path d="M 1.46875 -6.09375 L 1.46875 0 L 0.734375 0 L 0.734375 -6.09375 Z M 1.46875 -6.09375" transform="translate(156.554 227.958)"/></g></g></g><g fill="#FFF"><g><g><path d="M 0.40625 -5.4375 L 0.40625 -6.09375 L 4.96875 -6.09375 L 4.96875 -5.4375 L 3.0625 -5.4375 L 3.0625 0 L 2.3125 0 L 2.3125 -5.4375 Z M 0.40625 -5.4375" transform="translate(160.877 227.958)"/></g></g></g><g fill="#FFF"><g><g><path d="M 5.875 -3.046875 C 5.875 -2.398438 5.757812 -1.84375 5.53125 -1.375 C 5.300781 -0.90625 4.984375 -0.546875 4.578125 -0.296875 C 4.171875 -0.046875 3.707031 0.078125 3.1875 0.078125 C 2.664062 0.078125 2.203125 -0.046875 1.796875 -0.296875 C 1.398438 -0.546875 1.082031 -0.90625 0.84375 -1.375 C 0.613281 -1.84375 0.5 -2.398438 0.5 -3.046875 C 0.5 -3.691406 0.613281 -4.242188 0.84375 -4.703125 C 1.082031 -5.171875 1.398438 -5.53125 1.796875 -5.78125 C 2.203125 -6.039062 2.664062 -6.171875 3.1875 -6.171875 C 3.707031 -6.171875 4.171875 -6.039062 4.578125 -5.78125 C 4.984375 -5.53125 5.300781 -5.171875 5.53125 -4.703125 C 5.757812 -4.242188 5.875 -3.691406 5.875 -3.046875 Z M 5.15625 -3.046875 C 5.15625 -3.578125 5.066406 -4.019531 4.890625 -4.375 C 4.722656 -4.738281 4.488281 -5.015625 4.1875 -5.203125 C 3.882812 -5.390625 3.550781 -5.484375 3.1875 -5.484375 C 2.820312 -5.484375 2.488281 -5.390625 2.1875 -5.203125 C 1.882812 -5.015625 1.644531 -4.738281 1.46875 -4.375 C 1.300781 -4.019531 1.21875 -3.578125 1.21875 -3.046875 C 1.21875 -2.515625 1.300781 -2.066406 1.46875 -1.703125 C 1.644531 -1.347656 1.882812 -1.078125 2.1875 -0.890625 C 2.488281 -0.703125 2.820312 -0.609375 3.1875 -0.609375 C 3.550781 -0.609375 3.882812 -0.703125 4.1875 -0.890625 C 4.488281 -1.078125 4.722656 -1.347656 4.890625 -1.703125 C 5.066406 -2.066406 5.15625 -2.515625 5.15625 -3.046875 Z M 5.15625 -3.046875" transform="translate(168.365 227.958)"/></g></g></g><g fill="#FFF"><g><g><path d="M 0.734375 0 L 0.734375 -6.09375 L 2.796875 -6.09375 C 3.273438 -6.09375 3.664062 -6.007812 3.96875 -5.84375 C 4.269531 -5.6875 4.492188 -5.46875 4.640625 -5.1875 C 4.785156 -4.90625 4.859375 -4.582031 4.859375 -4.21875 C 4.859375 -3.8125 4.765625 -3.457031 4.578125 -3.15625 C 4.398438 -2.863281 4.113281 -2.648438 3.71875 -2.515625 L 5.109375 0 L 4.25 0 L 2.96875 -2.375 C 2.914062 -2.375 2.863281 -2.375 2.8125 -2.375 L 1.46875 -2.375 L 1.46875 0 Z M 1.46875 -3.046875 L 2.78125 -3.046875 C 3.269531 -3.046875 3.617188 -3.148438 3.828125 -3.359375 C 4.035156 -3.566406 4.140625 -3.851562 4.140625 -4.21875 C 4.140625 -4.582031 4.035156 -4.875 3.828125 -5.09375 C 3.617188 -5.320312 3.265625 -5.4375 2.765625 -5.4375 L 1.46875 -5.4375 Z M 1.46875 -3.046875" transform="translate(176.853 227.958)"/></g></g></g><g fill="#FFF"><g><g><path d="M 0.734375 0 L 0.734375 -6.09375 L 2.796875 -6.09375 C 3.273438 -6.09375 3.664062 -6.003906 3.96875 -5.828125 C 4.269531 -5.660156 4.492188 -5.429688 4.640625 -5.140625 C 4.785156 -4.847656 4.859375 -4.519531 4.859375 -4.15625 C 4.859375 -3.800781 4.785156 -3.476562 4.640625 -3.1875 C 4.492188 -2.894531 4.269531 -2.660156 3.96875 -2.484375 C 3.664062 -2.304688 3.28125 -2.21875 2.8125 -2.21875 L 1.46875 -2.21875 L 1.46875 0 Z M 1.46875 -2.875 L 2.78125 -2.875 C 3.269531 -2.875 3.617188 -2.992188 3.828125 -3.234375 C 4.035156 -3.484375 4.140625 -3.789062 4.140625 -4.15625 C 4.140625 -4.53125 4.035156 -4.835938 3.828125 -5.078125 C 3.617188 -5.316406 3.265625 -5.4375 2.765625 -5.4375 L 1.46875 -5.4375 Z M 1.46875 -2.875" transform="translate(188.783 227.958)"/></g></g></g><g fill="#FFF"><g><g><path d="M 0.984375 0 L 0.21875 0 L 2.453125 -6.09375 L 3.21875 -6.09375 L 5.453125 0 L 4.671875 0 L 4.0625 -1.71875 L 1.59375 -1.71875 Z M 1.828125 -2.375 L 3.828125 -2.375 L 2.859375 -5.125 L 2.8125 -5.125 Z M 1.828125 -2.375" transform="translate(196.212 227.958)"/></g></g></g><g fill="#FFF"><g><g><path d="M 0.734375 0 L 0.734375 -6.09375 L 2.796875 -6.09375 C 3.273438 -6.09375 3.664062 -6.007812 3.96875 -5.84375 C 4.269531 -5.6875 4.492188 -5.46875 4.640625 -5.1875 C 4.785156 -4.90625 4.859375 -4.582031 4.859375 -4.21875 C 4.859375 -3.8125 4.765625 -3.457031 4.578125 -3.15625 C 4.398438 -2.863281 4.113281 -2.648438 3.71875 -2.515625 L 5.109375 0 L 4.25 0 L 2.96875 -2.375 C 2.914062 -2.375 2.863281 -2.375 2.8125 -2.375 L 1.46875 -2.375 L 1.46875 0 Z M 1.46875 -3.046875 L 2.78125 -3.046875 C 3.269531 -3.046875 3.617188 -3.148438 3.828125 -3.359375 C 4.035156 -3.566406 4.140625 -3.851562 4.140625 -4.21875 C 4.140625 -4.582031 4.035156 -4.875 3.828125 -5.09375 C 3.617188 -5.320312 3.265625 -5.4375 2.765625 -5.4375 L 1.46875 -5.4375 Z M 1.46875 -3.046875" transform="translate(203.985 227.958)"/></g></g></g><g fill="#FFF"><g><g><path d="M 0.734375 0 L 0.734375 -6.09375 L 1.46875 -6.09375 L 1.46875 -3.0625 L 1.546875 -3.0625 L 4.28125 -6.09375 L 5.25 -6.09375 L 2.6875 -3.34375 L 5.25 0 L 4.359375 0 L 2.234375 -2.828125 L 1.46875 -1.96875 L 1.46875 0 Z M 0.734375 0" transform="translate(211.45 227.958)"/></g></g></g><g fill="#FFF"><g><g><path d="M 1.46875 -6.09375 L 1.46875 0 L 0.734375 0 L 0.734375 -6.09375 Z M 1.46875 -6.09375" transform="translate(219.021 227.958)"/></g></g></g><g fill="#FFF"><g><g><path d="M 5.5625 -6.09375 L 5.5625 0 L 4.859375 0 L 1.53125 -4.78125 L 1.46875 -4.78125 L 1.46875 0 L 0.734375 0 L 0.734375 -6.09375 L 1.453125 -6.09375 L 4.78125 -1.296875 L 4.84375 -1.296875 L 4.84375 -6.09375 Z M 5.5625 -6.09375" transform="translate(223.345 227.958)"/></g></g></g><g fill="#FFF"><g><g><path d="M 4.90625 -4.1875 C 4.769531 -4.582031 4.554688 -4.894531 4.265625 -5.125 C 3.972656 -5.363281 3.609375 -5.484375 3.171875 -5.484375 C 2.804688 -5.484375 2.472656 -5.390625 2.171875 -5.203125 C 1.878906 -5.015625 1.644531 -4.738281 1.46875 -4.375 C 1.300781 -4.019531 1.21875 -3.578125 1.21875 -3.046875 C 1.21875 -2.515625 1.304688 -2.066406 1.484375 -1.703125 C 1.660156 -1.347656 1.894531 -1.078125 2.1875 -0.890625 C 2.488281 -0.703125 2.832031 -0.609375 3.21875 -0.609375 C 3.550781 -0.609375 3.847656 -0.679688 4.109375 -0.828125 C 4.378906 -0.972656 4.585938 -1.175781 4.734375 -1.4375 C 4.890625 -1.707031 4.972656 -2.023438 4.984375 -2.390625 L 3.375 -2.390625 L 3.375 -3.046875 L 5.703125 -3.046875 L 5.703125 -2.390625 C 5.703125 -1.890625 5.59375 -1.453125 5.375 -1.078125 C 5.164062 -0.710938 4.875 -0.425781 4.5 -0.21875 C 4.125 -0.0195312 3.695312 0.078125 3.21875 0.078125 C 2.675781 0.078125 2.203125 -0.046875 1.796875 -0.296875 C 1.390625 -0.546875 1.070312 -0.90625 0.84375 -1.375 C 0.613281 -1.84375 0.5 -2.398438 0.5 -3.046875 C 0.5 -3.691406 0.613281 -4.242188 0.84375 -4.703125 C 1.070312 -5.171875 1.382812 -5.53125 1.78125 -5.78125 C 2.1875 -6.039062 2.648438 -6.171875 3.171875 -6.171875 C 3.597656 -6.171875 3.984375 -6.085938 4.328125 -5.921875 C 4.679688 -5.753906 4.972656 -5.519531 5.203125 -5.21875 C 5.429688 -4.925781 5.582031 -4.582031 5.65625 -4.1875 Z M 4.90625 -4.1875" transform="translate(231.76 227.958)"/></g></g></g><g fill="#FFF"><g><g><path d="M 0.734375 -6.09375 L 1.625 -6.09375 L 3.6875 -1.03125 L 3.765625 -1.03125 L 5.828125 -6.09375 L 6.703125 -6.09375 L 6.703125 0 L 6.015625 0 L 6.015625 -4.625 L 5.953125 -4.625 L 4.0625 0 L 3.390625 0 L 1.484375 -4.625 L 1.421875 -4.625 L 1.421875 0 L 0.734375 0 Z M 0.734375 -6.09375" transform="translate(147.583 236.334)"/></g></g></g><g fill="#FFF"><g><g><path d="M 0.984375 0 L 0.21875 0 L 2.453125 -6.09375 L 3.21875 -6.09375 L 5.453125 0 L 4.671875 0 L 4.0625 -1.71875 L 1.59375 -1.71875 Z M 1.828125 -2.375 L 3.828125 -2.375 L 2.859375 -5.125 L 2.8125 -5.125 Z M 1.828125 -2.375" transform="translate(157.331 236.334)"/></g></g></g><g fill="#FFF"><g><g><path d="M 5.5625 -6.09375 L 5.5625 0 L 4.859375 0 L 1.53125 -4.78125 L 1.46875 -4.78125 L 1.46875 0 L 0.734375 0 L 0.734375 -6.09375 L 1.453125 -6.09375 L 4.78125 -1.296875 L 4.84375 -1.296875 L 4.84375 -6.09375 Z M 5.5625 -6.09375" transform="translate(165.105 236.334)"/></g></g></g><g fill="#FFF"><g><g><path d="M 0.984375 0 L 0.21875 0 L 2.453125 -6.09375 L 3.21875 -6.09375 L 5.453125 0 L 4.671875 0 L 4.0625 -1.71875 L 1.59375 -1.71875 Z M 1.828125 -2.375 L 3.828125 -2.375 L 2.859375 -5.125 L 2.8125 -5.125 Z M 1.828125 -2.375" transform="translate(173.521 236.334)"/></g></g></g><g fill="#FFF"><g><g><path d="M 4.90625 -4.1875 C 4.769531 -4.582031 4.554688 -4.894531 4.265625 -5.125 C 3.972656 -5.363281 3.609375 -5.484375 3.171875 -5.484375 C 2.804688 -5.484375 2.472656 -5.390625 2.171875 -5.203125 C 1.878906 -5.015625 1.644531 -4.738281 1.46875 -4.375 C 1.300781 -4.019531 1.21875 -3.578125 1.21875 -3.046875 C 1.21875 -2.515625 1.304688 -2.066406 1.484375 -1.703125 C 1.660156 -1.347656 1.894531 -1.078125 2.1875 -0.890625 C 2.488281 -0.703125 2.832031 -0.609375 3.21875 -0.609375 C 3.550781 -0.609375 3.847656 -0.679688 4.109375 -0.828125 C 4.378906 -0.972656 4.585938 -1.175781 4.734375 -1.4375 C 4.890625 -1.707031 4.972656 -2.023438 4.984375 -2.390625 L 3.375 -2.390625 L 3.375 -3.046875 L 5.703125 -3.046875 L 5.703125 -2.390625 C 5.703125 -1.890625 5.59375 -1.453125 5.375 -1.078125 C 5.164062 -0.710938 4.875 -0.425781 4.5 -0.21875 C 4.125 -0.0195312 3.695312 0.078125 3.21875 0.078125 C 2.675781 0.078125 2.203125 -0.046875 1.796875 -0.296875 C 1.390625 -0.546875 1.070312 -0.90625 0.84375 -1.375 C 0.613281 -1.84375 0.5 -2.398438 0.5 -3.046875 C 0.5 -3.691406 0.613281 -4.242188 0.84375 -4.703125 C 1.070312 -5.171875 1.382812 -5.53125 1.78125 -5.78125 C 2.1875 -6.039062 2.648438 -6.171875 3.171875 -6.171875 C 3.597656 -6.171875 3.984375 -6.085938 4.328125 -5.921875 C 4.679688 -5.753906 4.972656 -5.519531 5.203125 -5.21875 C 5.429688 -4.925781 5.582031 -4.582031 5.65625 -4.1875 Z M 4.90625 -4.1875" transform="translate(181.295 236.334)"/></g></g></g><g fill="#FFF"><g><g><path d="M 0.734375 0 L 0.734375 -6.09375 L 4.40625 -6.09375 L 4.40625 -5.4375 L 1.46875 -5.4375 L 1.46875 -3.375 L 4.21875 -3.375 L 4.21875 -2.71875 L 1.46875 -2.71875 L 1.46875 -0.65625 L 4.46875 -0.65625 L 4.46875 0 Z M 0.734375 0" transform="translate(189.627 236.334)"/></g></g></g><g fill="#FFF"><g><g><path d="M 0.734375 -6.09375 L 1.625 -6.09375 L 3.6875 -1.03125 L 3.765625 -1.03125 L 5.828125 -6.09375 L 6.703125 -6.09375 L 6.703125 0 L 6.015625 0 L 6.015625 -4.625 L 5.953125 -4.625 L 4.0625 0 L 3.390625 0 L 1.484375 -4.625 L 1.421875 -4.625 L 1.421875 0 L 0.734375 0 Z M 0.734375 -6.09375" transform="translate(196.747 236.334)"/></g></g></g><g fill="#FFF"><g><g><path d="M 0.734375 0 L 0.734375 -6.09375 L 4.40625 -6.09375 L 4.40625 -5.4375 L 1.46875 -5.4375 L 1.46875 -3.375 L 4.21875 -3.375 L 4.21875 -2.71875 L 1.46875 -2.71875 L 1.46875 -0.65625 L 4.46875 -0.65625 L 4.46875 0 Z M 0.734375 0" transform="translate(206.495 236.334)"/></g></g></g><g fill="#FFF"><g><g><path d="M 5.5625 -6.09375 L 5.5625 0 L 4.859375 0 L 1.53125 -4.78125 L 1.46875 -4.78125 L 1.46875 0 L 0.734375 0 L 0.734375 -6.09375 L 1.453125 -6.09375 L 4.78125 -1.296875 L 4.84375 -1.296875 L 4.84375 -6.09375 Z M 5.5625 -6.09375" transform="translate(213.614 236.334)"/></g></g></g><g fill="#FFF"><g><g><path d="M 0.40625 -5.4375 L 0.40625 -6.09375 L 4.96875 -6.09375 L 4.96875 -5.4375 L 3.0625 -5.4375 L 3.0625 0 L 2.3125 0 L 2.3125 -5.4375 Z M 0.40625 -5.4375" transform="translate(222.03 236.334)"/></g></g></g><g clip-path="url(#b)"><path fill="#FFF" d="M 230.007812 159.546875 C 230.855469 159.546875 231.609375 160.121094 231.84375 160.9375 L 233.15625 165.5625 L 233.207031 165.730469 L 233.3125 165.871094 L 233.980469 166.765625 C 234.347656 167.261719 234.550781 167.875 234.550781 168.492188 L 234.550781 172.964844 L 215.476562 172.964844 L 215.476562 168.492188 C 215.476562 167.875 215.679688 167.261719 216.046875 166.765625 L 216.714844 165.871094 L 216.820312 165.730469 L 216.871094 165.5625 L 218.183594 160.9375 C 218.417969 160.121094 219.171875 159.546875 220.019531 159.546875 L 230.007812 159.546875 M 230.007812 158.589844 L 220.019531 158.589844 C 218.742188 158.589844 217.617188 159.441406 217.269531 160.675781 L 215.953125 165.296875 L 215.285156 166.191406 C 214.789062 166.855469 214.523438 167.664062 214.523438 168.492188 L 214.523438 173.921875 L 235.503906 173.921875 L 235.503906 168.492188 C 235.503906 167.664062 235.238281 166.855469 234.742188 166.191406 L 234.074219 165.296875 L 232.761719 160.675781 C 232.410156 159.441406 231.285156 158.589844 230.007812 158.589844 Z M 230.007812 158.589844"/></g><g clip-path="url(#c)"><path fill="#FFF" d="M 235.503906 172.964844 L 232.644531 172.964844 L 232.644531 174.882812 C 232.644531 175.410156 233.070312 175.839844 233.597656 175.839844 L 234.550781 175.839844 C 235.078125 175.839844 235.503906 175.410156 235.503906 174.882812 Z M 235.503906 172.964844"/></g><g clip-path="url(#d)"><path fill="#FFF" d="M 217.382812 172.964844 L 214.523438 172.964844 L 214.523438 174.882812 C 214.523438 175.410156 214.949219 175.839844 215.476562 175.839844 L 216.429688 175.839844 C 216.957031 175.839844 217.382812 175.410156 217.382812 174.882812 Z M 217.382812 172.964844"/></g><g clip-path="url(#e)"><path fill="#FFF" d="M 233.792969 165.871094 L 234.851562 165.515625 C 235.242188 165.386719 235.503906 165.019531 235.503906 164.605469 L 235.503906 164.339844 C 235.503906 163.8125 235.078125 163.382812 234.550781 163.382812 L 232.644531 163.382812 Z M 233.792969 165.871094"/></g><g clip-path="url(#f)"><path fill="#FFF" d="M 216.144531 165.839844 L 215.175781 165.515625 C 214.785156 165.386719 214.523438 165.019531 214.523438 164.605469 L 214.523438 164.339844 C 214.523438 163.8125 214.949219 163.382812 215.476562 163.382812 L 217.382812 163.382812 Z M 216.144531 165.839844"/></g><g clip-path="url(#g)"><path fill="#FFF" d="M 234.742188 166.191406 L 234.074219 165.296875 L 233.800781 164.339844 L 216.226562 164.339844 L 215.953125 165.296875 L 215.285156 166.191406 C 214.789062 166.855469 214.523438 167.664062 214.523438 168.492188 L 214.523438 173.921875 L 235.503906 173.921875 L 235.503906 168.492188 C 235.503906 167.664062 235.238281 166.855469 234.742188 166.191406 Z M 217.859375 170.089844 C 217.070312 170.089844 216.429688 169.445312 216.429688 168.652344 C 216.429688 167.859375 217.070312 167.214844 217.859375 167.214844 C 218.652344 167.214844 219.292969 167.859375 219.292969 168.652344 C 219.292969 169.445312 218.652344 170.089844 217.859375 170.089844 Z M 232.167969 170.089844 C 231.378906 170.089844 230.734375 169.445312 230.734375 168.652344 C 230.734375 167.859375 231.378906 167.214844 232.167969 167.214844 C 232.957031 167.214844 233.597656 167.859375 233.597656 168.652344 C 233.597656 169.445312 232.957031 170.089844 232.167969 170.089844 Z M 232.167969 170.089844"/></g></svg>