<svg xmlns="http://www.w3.org/2000/svg" xmlns:xlink="http://www.w3.org/1999/xlink" width="375" viewBox="0 0 375 375" height="375" version="1.0"><defs><clipPath id="d"><path d="M 1 0.480469 L 85.320312 0.480469 L 85.320312 84.960938 L 1 84.960938 Z M 1 0.480469"/></clipPath><clipPath id="c"><path d="M0 0H86V85H0z"/></clipPath><clipPath id="g"><path d="M 0.171875 1.214844 L 108.171875 1.214844 L 108.171875 127.964844 L 0.171875 127.964844 Z M 0.171875 1.214844"/></clipPath><clipPath id="f"><path d="M0 0H109V129H0z"/></clipPath><clipPath id="i"><path d="M0 0H247V55H0z"/></clipPath><clipPath id="k"><path d="M0 0H170V31H0z"/></clipPath><clipPath id="n"><path d="M 0.378906 0.886719 L 34.878906 0.886719 L 34.878906 27 L 0.378906 27 Z M 0.378906 0.886719"/></clipPath><clipPath id="o"><path d="M 30 24 L 34.878906 24 L 34.878906 29.386719 L 30 29.386719 Z M 30 24"/></clipPath><clipPath id="p"><path d="M 0.378906 24 L 6 24 L 6 29.386719 L 0.378906 29.386719 Z M 0.378906 24"/></clipPath><clipPath id="q"><path d="M 30 8 L 34.878906 8 L 34.878906 13 L 30 13 Z M 30 8"/></clipPath><clipPath id="r"><path d="M 0.378906 8 L 6 8 L 6 13 L 0.378906 13 Z M 0.378906 8"/></clipPath><clipPath id="s"><path d="M 0.378906 10 L 34.878906 10 L 34.878906 27 L 0.378906 27 Z M 0.378906 10"/></clipPath><clipPath id="m"><path d="M0 0H35V30H0z"/></clipPath><mask id="b"><g filter="url(#a)"><path fill-opacity=".6" d="M-37.5 -37.5H412.5V412.5H-37.5z"/></g></mask><mask id="e"><g filter="url(#a)"><path fill-opacity=".6" d="M-37.5 -37.5H412.5V412.5H-37.5z"/></g></mask><mask id="h"><g filter="url(#a)"><path fill-opacity=".6" d="M-37.5 -37.5H412.5V412.5H-37.5z"/></g></mask><mask id="j"><g filter="url(#a)"><path fill-opacity=".6" d="M-37.5 -37.5H412.5V412.5H-37.5z"/></g></mask><mask id="l"><g filter="url(#a)"><path fill-opacity=".6" d="M-37.5 -37.5H412.5V412.5H-37.5z"/></g></mask><filter x="0%" y="0%" width="100%" xmlns:xlink="http://www.w3.org/1999/xlink" xlink:type="simple" xlink:actuate="onLoad" height="100%" id="a" xlink:show="other"><feColorMatrix values="0 0 0 0 1 0 0 0 0 1 0 0 0 0 1 0 0 0 1 0" color-interpolation-filters="sRGB"/></filter></defs><g mask="url(#b)"><g><g clip-path="url(#c)" transform="translate(111 66)"><g clip-path="url(#d)"><path fill="#B6CCD7" d="M 43.246094 0.75 C 20.050781 0.75 1.246094 19.554688 1.246094 42.75 C 1.246094 65.945312 20.050781 84.75 43.246094 84.75 C 66.445312 84.75 85.246094 65.945312 85.246094 42.75 C 85.246094 19.554688 66.445312 0.75 43.246094 0.75"/></g></g></g></g><g mask="url(#e)"><g><g clip-path="url(#f)" transform="translate(123 79)"><g clip-path="url(#g)"><path fill="#120047" d="M 91.859375 47.578125 L 91.859375 124.695312 L 83.4375 124.695312 L 83.4375 41.8125 Z M 68.3125 124.695312 L 62.550781 124.695312 L 62.550781 47.84375 L 68.3125 45.636719 Z M 68.3125 15.046875 L 68.3125 42.136719 L 59.285156 45.59375 L 59.285156 124.695312 L 57.261719 124.695312 L 57.261719 6.441406 Z M 38.515625 124.699219 L 31.691406 124.699219 L 31.691406 54.222656 L 38.515625 58.894531 Z M 108.152344 124.695312 L 95.125 124.695312 L 95.125 45.855469 L 83.4375 37.847656 L 82.023438 36.875 L 80.175781 37.585938 L 71.574219 40.882812 L 71.574219 13.449219 L 57.261719 2.296875 L 55.867188 1.210938 L 53.996094 2.027344 L 28.410156 13.175781 L 28.410156 50.003906 L 10.394531 56.910156 L 10.394531 124.699219 L 0.191406 124.699219 L 0.191406 127.964844 L 13.660156 127.964844 L 13.660156 59.160156 L 28.410156 53.503906 L 28.410156 126.332031 L 28.425781 127.964844 L 41.78125 127.964844 L 41.78125 57.171875 L 31.6875 50.253906 L 31.675781 48.695312 L 31.675781 15.320312 L 53.996094 5.59375 L 53.996094 127.964844 L 71.574219 127.964844 L 71.574219 44.382812 L 80.175781 41.089844 L 80.175781 127.964844 L 108.152344 127.964844 L 108.152344 124.695312"/></g></g></g></g><g mask="url(#h)"><g><g clip-path="url(#i)" fill="#120047" transform="translate(66 225)"><g><g><g><path d="M 13.6875 -15.59375 C 14.9375 -15.59375 16.039062 -15.753906 17 -16.078125 C 17.957031 -16.410156 18.765625 -16.875 19.421875 -17.46875 C 20.078125 -18.070312 20.566406 -18.785156 20.890625 -19.609375 C 21.222656 -20.441406 21.390625 -21.351562 21.390625 -22.34375 C 21.390625 -24.40625 20.753906 -26.015625 19.484375 -27.171875 C 18.210938 -28.335938 16.28125 -28.921875 13.6875 -28.921875 L 8.5 -28.921875 L 8.5 -15.59375 Z M 13.6875 -32.375 C 15.738281 -32.375 17.519531 -32.132812 19.03125 -31.65625 C 20.550781 -31.1875 21.804688 -30.515625 22.796875 -29.640625 C 23.785156 -28.765625 24.523438 -27.707031 25.015625 -26.46875 C 25.503906 -25.238281 25.75 -23.863281 25.75 -22.34375 C 25.75 -20.832031 25.484375 -19.453125 24.953125 -18.203125 C 24.429688 -16.953125 23.660156 -15.875 22.640625 -14.96875 C 21.628906 -14.070312 20.375 -13.367188 18.875 -12.859375 C 17.375 -12.359375 15.644531 -12.109375 13.6875 -12.109375 L 8.5 -12.109375 L 8.5 0 L 4.140625 0 L 4.140625 -32.375 Z M 13.6875 -32.375" transform="translate(1.589 44.502)"/></g></g></g><g><g><g><path d="M 13.109375 -16.703125 C 14.367188 -16.703125 15.484375 -16.851562 16.453125 -17.15625 C 17.429688 -17.46875 18.242188 -17.90625 18.890625 -18.46875 C 19.546875 -19.03125 20.039062 -19.703125 20.375 -20.484375 C 20.707031 -21.273438 20.875 -22.144531 20.875 -23.09375 C 20.875 -25.019531 20.238281 -26.472656 18.96875 -27.453125 C 17.707031 -28.429688 15.8125 -28.921875 13.28125 -28.921875 L 8.5 -28.921875 L 8.5 -16.703125 Z M 28.0625 0 L 24.171875 0 C 23.378906 0 22.789062 -0.304688 22.40625 -0.921875 L 14.015625 -12.5 C 13.753906 -12.851562 13.476562 -13.109375 13.1875 -13.265625 C 12.894531 -13.429688 12.4375 -13.515625 11.8125 -13.515625 L 8.5 -13.515625 L 8.5 0 L 4.140625 0 L 4.140625 -32.375 L 13.28125 -32.375 C 15.332031 -32.375 17.101562 -32.164062 18.59375 -31.75 C 20.082031 -31.34375 21.3125 -30.742188 22.28125 -29.953125 C 23.257812 -29.171875 23.976562 -28.226562 24.4375 -27.125 C 24.90625 -26.019531 25.140625 -24.78125 25.140625 -23.40625 C 25.140625 -22.257812 24.957031 -21.1875 24.59375 -20.1875 C 24.238281 -19.195312 23.71875 -18.304688 23.03125 -17.515625 C 22.34375 -16.722656 21.503906 -16.046875 20.515625 -15.484375 C 19.535156 -14.929688 18.421875 -14.515625 17.171875 -14.234375 C 17.722656 -13.921875 18.207031 -13.460938 18.625 -12.859375 Z M 28.0625 0" transform="translate(33.65 44.502)"/></g></g></g><g><g><g><path d="M 8.5 -18.1875 L 10.140625 -18.1875 C 10.710938 -18.1875 11.171875 -18.257812 11.515625 -18.40625 C 11.867188 -18.550781 12.1875 -18.796875 12.46875 -19.140625 L 23.25 -31.34375 C 23.550781 -31.726562 23.863281 -31.992188 24.1875 -32.140625 C 24.519531 -32.296875 24.929688 -32.375 25.421875 -32.375 L 29.125 -32.375 L 16.78125 -18.4375 C 16.476562 -18.070312 16.1875 -17.769531 15.90625 -17.53125 C 15.632812 -17.300781 15.34375 -17.113281 15.03125 -16.96875 C 15.4375 -16.832031 15.800781 -16.628906 16.125 -16.359375 C 16.457031 -16.097656 16.785156 -15.757812 17.109375 -15.34375 L 29.984375 0 L 26.1875 0 C 25.894531 0 25.644531 -0.015625 25.4375 -0.046875 C 25.238281 -0.0859375 25.0625 -0.148438 24.90625 -0.234375 C 24.757812 -0.316406 24.628906 -0.414062 24.515625 -0.53125 C 24.410156 -0.644531 24.304688 -0.773438 24.203125 -0.921875 L 13.03125 -13.78125 C 12.726562 -14.15625 12.40625 -14.421875 12.0625 -14.578125 C 11.71875 -14.742188 11.191406 -14.828125 10.484375 -14.828125 L 8.5 -14.828125 L 8.5 0 L 4.140625 0 L 4.140625 -32.375 L 8.5 -32.375 Z M 8.5 -18.1875" transform="translate(66.887 44.502)"/></g></g></g><g><g><g><path d="M 26.859375 -6.6875 C 27.097656 -6.6875 27.3125 -6.585938 27.5 -6.390625 L 29.234375 -4.515625 C 27.910156 -2.984375 26.300781 -1.785156 24.40625 -0.921875 C 22.519531 -0.0664062 20.238281 0.359375 17.5625 0.359375 C 15.238281 0.359375 13.125 -0.0390625 11.21875 -0.84375 C 9.320312 -1.65625 7.703125 -2.785156 6.359375 -4.234375 C 5.023438 -5.691406 3.988281 -7.4375 3.25 -9.46875 C 2.507812 -11.5 2.140625 -13.734375 2.140625 -16.171875 C 2.140625 -18.617188 2.523438 -20.859375 3.296875 -22.890625 C 4.066406 -24.921875 5.144531 -26.664062 6.53125 -28.125 C 7.925781 -29.59375 9.59375 -30.726562 11.53125 -31.53125 C 13.476562 -32.332031 15.628906 -32.734375 17.984375 -32.734375 C 20.285156 -32.734375 22.316406 -32.363281 24.078125 -31.625 C 25.847656 -30.894531 27.398438 -29.894531 28.734375 -28.625 L 27.296875 -26.609375 C 27.203125 -26.460938 27.082031 -26.335938 26.9375 -26.234375 C 26.800781 -26.140625 26.609375 -26.09375 26.359375 -26.09375 C 26.085938 -26.09375 25.753906 -26.238281 25.359375 -26.53125 C 24.972656 -26.832031 24.460938 -27.160156 23.828125 -27.515625 C 23.203125 -27.878906 22.414062 -28.207031 21.46875 -28.5 C 20.519531 -28.789062 19.351562 -28.9375 17.96875 -28.9375 C 16.289062 -28.9375 14.757812 -28.644531 13.375 -28.0625 C 11.988281 -27.488281 10.796875 -26.648438 9.796875 -25.546875 C 8.796875 -24.453125 8.015625 -23.113281 7.453125 -21.53125 C 6.898438 -19.945312 6.625 -18.160156 6.625 -16.171875 C 6.625 -14.160156 6.910156 -12.363281 7.484375 -10.78125 C 8.066406 -9.195312 8.859375 -7.859375 9.859375 -6.765625 C 10.859375 -5.671875 12.039062 -4.835938 13.40625 -4.265625 C 14.769531 -3.691406 16.242188 -3.40625 17.828125 -3.40625 C 18.785156 -3.40625 19.648438 -3.460938 20.421875 -3.578125 C 21.203125 -3.691406 21.921875 -3.867188 22.578125 -4.109375 C 23.234375 -4.347656 23.84375 -4.648438 24.40625 -5.015625 C 24.976562 -5.390625 25.539062 -5.832031 26.09375 -6.34375 C 26.351562 -6.570312 26.609375 -6.6875 26.859375 -6.6875 Z M 26.859375 -6.6875" transform="translate(118.244 44.502)"/></g></g></g><g><g><g><path d="M 26.03125 -28.6875 L 15.546875 -28.6875 L 15.546875 0 L 11.1875 0 L 11.1875 -28.6875 L 0.671875 -28.6875 L 0.671875 -32.375 L 26.03125 -32.375 Z M 26.03125 -28.6875" transform="translate(153.356 44.502)"/></g></g></g><g><g><g><path d="M 13.109375 -16.703125 C 14.367188 -16.703125 15.484375 -16.851562 16.453125 -17.15625 C 17.429688 -17.46875 18.242188 -17.90625 18.890625 -18.46875 C 19.546875 -19.03125 20.039062 -19.703125 20.375 -20.484375 C 20.707031 -21.273438 20.875 -22.144531 20.875 -23.09375 C 20.875 -25.019531 20.238281 -26.472656 18.96875 -27.453125 C 17.707031 -28.429688 15.8125 -28.921875 13.28125 -28.921875 L 8.5 -28.921875 L 8.5 -16.703125 Z M 28.0625 0 L 24.171875 0 C 23.378906 0 22.789062 -0.304688 22.40625 -0.921875 L 14.015625 -12.5 C 13.753906 -12.851562 13.476562 -13.109375 13.1875 -13.265625 C 12.894531 -13.429688 12.4375 -13.515625 11.8125 -13.515625 L 8.5 -13.515625 L 8.5 0 L 4.140625 0 L 4.140625 -32.375 L 13.28125 -32.375 C 15.332031 -32.375 17.101562 -32.164062 18.59375 -31.75 C 20.082031 -31.34375 21.3125 -30.742188 22.28125 -29.953125 C 23.257812 -29.171875 23.976562 -28.226562 24.4375 -27.125 C 24.90625 -26.019531 25.140625 -24.78125 25.140625 -23.40625 C 25.140625 -22.257812 24.957031 -21.1875 24.59375 -20.1875 C 24.238281 -19.195312 23.71875 -18.304688 23.03125 -17.515625 C 22.34375 -16.722656 21.503906 -16.046875 20.515625 -15.484375 C 19.535156 -14.929688 18.421875 -14.515625 17.171875 -14.234375 C 17.722656 -13.921875 18.207031 -13.460938 18.625 -12.859375 Z M 28.0625 0" transform="translate(184.965 44.502)"/></g></g></g><g><g><g><path d="M 22.5 -3.6875 L 22.5 0 L 4.140625 0 L 4.140625 -32.375 L 8.5 -32.375 L 8.5 -3.6875 Z M 22.5 -3.6875" transform="translate(218.202 44.502)"/></g></g></g></g></g></g><g mask="url(#j)"><g><g clip-path="url(#k)" fill="#120047" transform="translate(104 278)"><g><g><g><path d="M 1.609375 -9.890625 L 4.53125 -1.5625 L 4.65625 -1.5625 L 7.59375 -9.890625 L 8.84375 -9.890625 L 5.21875 0 L 3.984375 0 L 0.34375 -9.890625 Z M 1.609375 -9.890625" transform="translate(1.527 13.578)"/></g></g></g><g><g><g><path d="M 2.390625 -9.890625 L 2.390625 0 L 1.203125 0 L 1.203125 -9.890625 Z M 2.390625 -9.890625" transform="translate(14.147 13.578)"/></g></g></g><g><g><g><path d="M 6.609375 -7.421875 C 6.546875 -7.898438 6.304688 -8.273438 5.890625 -8.546875 C 5.484375 -8.816406 4.984375 -8.953125 4.390625 -8.953125 C 3.722656 -8.953125 3.191406 -8.796875 2.796875 -8.484375 C 2.398438 -8.179688 2.203125 -7.789062 2.203125 -7.3125 C 2.203125 -6.957031 2.3125 -6.671875 2.53125 -6.453125 C 2.75 -6.242188 3.003906 -6.078125 3.296875 -5.953125 C 3.597656 -5.828125 3.867188 -5.734375 4.109375 -5.671875 L 5.109375 -5.40625 C 5.367188 -5.34375 5.65625 -5.25 5.96875 -5.125 C 6.289062 -5.007812 6.597656 -4.847656 6.890625 -4.640625 C 7.179688 -4.429688 7.421875 -4.164062 7.609375 -3.84375 C 7.796875 -3.53125 7.890625 -3.144531 7.890625 -2.6875 C 7.890625 -2.144531 7.75 -1.660156 7.46875 -1.234375 C 7.195312 -0.804688 6.796875 -0.460938 6.265625 -0.203125 C 5.734375 0.046875 5.085938 0.171875 4.328125 0.171875 C 3.265625 0.171875 2.421875 -0.078125 1.796875 -0.578125 C 1.171875 -1.078125 0.828125 -1.734375 0.765625 -2.546875 L 2.015625 -2.546875 C 2.046875 -2.171875 2.171875 -1.863281 2.390625 -1.625 C 2.609375 -1.382812 2.882812 -1.203125 3.21875 -1.078125 C 3.5625 -0.960938 3.929688 -0.90625 4.328125 -0.90625 C 4.785156 -0.90625 5.195312 -0.976562 5.5625 -1.125 C 5.925781 -1.28125 6.210938 -1.488281 6.421875 -1.75 C 6.628906 -2.019531 6.734375 -2.335938 6.734375 -2.703125 C 6.734375 -3.035156 6.640625 -3.300781 6.453125 -3.5 C 6.273438 -3.707031 6.035156 -3.875 5.734375 -4 C 5.441406 -4.132812 5.117188 -4.25 4.765625 -4.34375 L 3.546875 -4.6875 C 2.773438 -4.914062 2.164062 -5.234375 1.71875 -5.640625 C 1.269531 -6.054688 1.046875 -6.597656 1.046875 -7.265625 C 1.046875 -7.816406 1.195312 -8.296875 1.5 -8.703125 C 1.800781 -9.117188 2.203125 -9.441406 2.703125 -9.671875 C 3.210938 -9.898438 3.785156 -10.015625 4.421875 -10.015625 C 5.054688 -10.015625 5.617188 -9.898438 6.109375 -9.671875 C 6.609375 -9.453125 7.003906 -9.144531 7.296875 -8.75 C 7.585938 -8.351562 7.742188 -7.910156 7.765625 -7.421875 Z M 6.609375 -7.421875" transform="translate(21.167 13.578)"/></g></g></g><g><g><g><path d="M 2.390625 -9.890625 L 2.390625 0 L 1.203125 0 L 1.203125 -9.890625 Z M 2.390625 -9.890625" transform="translate(33.265 13.578)"/></g></g></g><g><g><g><path d="M 0.65625 -8.828125 L 0.65625 -9.890625 L 8.078125 -9.890625 L 8.078125 -8.828125 L 4.96875 -8.828125 L 4.96875 0 L 3.765625 0 L 3.765625 -8.828125 Z M 0.65625 -8.828125" transform="translate(40.284 13.578)"/></g></g></g><g><g><g><path d="M 9.53125 -4.9375 C 9.53125 -3.894531 9.34375 -2.992188 8.96875 -2.234375 C 8.59375 -1.472656 8.078125 -0.882812 7.421875 -0.46875 C 6.765625 -0.0625 6.015625 0.140625 5.171875 0.140625 C 4.328125 0.140625 3.578125 -0.0625 2.921875 -0.46875 C 2.265625 -0.882812 1.75 -1.472656 1.375 -2.234375 C 1 -2.992188 0.8125 -3.894531 0.8125 -4.9375 C 0.8125 -5.976562 1 -6.878906 1.375 -7.640625 C 1.75 -8.398438 2.265625 -8.984375 2.921875 -9.390625 C 3.578125 -9.804688 4.328125 -10.015625 5.171875 -10.015625 C 6.015625 -10.015625 6.765625 -9.804688 7.421875 -9.390625 C 8.078125 -8.984375 8.59375 -8.398438 8.96875 -7.640625 C 9.34375 -6.878906 9.53125 -5.976562 9.53125 -4.9375 Z M 8.375 -4.9375 C 8.375 -5.800781 8.234375 -6.523438 7.953125 -7.109375 C 7.671875 -7.703125 7.285156 -8.148438 6.796875 -8.453125 C 6.316406 -8.753906 5.773438 -8.90625 5.171875 -8.90625 C 4.578125 -8.90625 4.035156 -8.753906 3.546875 -8.453125 C 3.066406 -8.148438 2.679688 -7.703125 2.390625 -7.109375 C 2.109375 -6.523438 1.96875 -5.800781 1.96875 -4.9375 C 1.96875 -4.082031 2.109375 -3.359375 2.390625 -2.765625 C 2.679688 -2.179688 3.066406 -1.738281 3.546875 -1.4375 C 4.035156 -1.132812 4.578125 -0.984375 5.171875 -0.984375 C 5.773438 -0.984375 6.316406 -1.132812 6.796875 -1.4375 C 7.285156 -1.738281 7.671875 -2.179688 7.953125 -2.765625 C 8.234375 -3.359375 8.375 -4.082031 8.375 -4.9375 Z M 8.375 -4.9375" transform="translate(52.44 13.578)"/></g></g></g><g><g><g><path d="M 1.203125 0 L 1.203125 -9.890625 L 4.53125 -9.890625 C 5.3125 -9.890625 5.945312 -9.753906 6.4375 -9.484375 C 6.9375 -9.222656 7.300781 -8.863281 7.53125 -8.40625 C 7.769531 -7.957031 7.890625 -7.441406 7.890625 -6.859375 C 7.890625 -6.203125 7.738281 -5.628906 7.4375 -5.140625 C 7.144531 -4.648438 6.679688 -4.296875 6.046875 -4.078125 L 8.28125 0 L 6.890625 0 L 4.8125 -3.859375 C 4.726562 -3.859375 4.644531 -3.859375 4.5625 -3.859375 L 2.390625 -3.859375 L 2.390625 0 Z M 2.390625 -4.9375 L 4.515625 -4.9375 C 5.304688 -4.9375 5.867188 -5.109375 6.203125 -5.453125 C 6.546875 -5.796875 6.71875 -6.265625 6.71875 -6.859375 C 6.71875 -7.453125 6.546875 -7.925781 6.203125 -8.28125 C 5.867188 -8.644531 5.300781 -8.828125 4.5 -8.828125 L 2.390625 -8.828125 Z M 2.390625 -4.9375" transform="translate(66.218 13.578)"/></g></g></g><g><g><g><path d="M 1.203125 0 L 1.203125 -9.890625 L 4.53125 -9.890625 C 5.3125 -9.890625 5.945312 -9.75 6.4375 -9.46875 C 6.9375 -9.1875 7.300781 -8.804688 7.53125 -8.328125 C 7.769531 -7.859375 7.890625 -7.335938 7.890625 -6.765625 C 7.890625 -6.179688 7.769531 -5.648438 7.53125 -5.171875 C 7.300781 -4.691406 6.9375 -4.3125 6.4375 -4.03125 C 5.945312 -3.75 5.320312 -3.609375 4.5625 -3.609375 L 2.390625 -3.609375 L 2.390625 0 Z M 2.390625 -4.671875 L 4.515625 -4.671875 C 5.304688 -4.671875 5.867188 -4.867188 6.203125 -5.265625 C 6.546875 -5.671875 6.71875 -6.171875 6.71875 -6.765625 C 6.71875 -7.359375 6.546875 -7.847656 6.203125 -8.234375 C 5.867188 -8.628906 5.300781 -8.828125 4.5 -8.828125 L 2.390625 -8.828125 Z M 2.390625 -4.671875" transform="translate(85.587 13.578)"/></g></g></g><g><g><g><path d="M 1.609375 0 L 0.34375 0 L 3.984375 -9.890625 L 5.21875 -9.890625 L 8.84375 0 L 7.59375 0 L 6.59375 -2.796875 L 2.59375 -2.796875 Z M 2.96875 -3.859375 L 6.21875 -3.859375 L 4.640625 -8.328125 L 4.5625 -8.328125 Z M 2.96875 -3.859375" transform="translate(97.647 13.578)"/></g></g></g><g><g><g><path d="M 1.203125 0 L 1.203125 -9.890625 L 4.53125 -9.890625 C 5.3125 -9.890625 5.945312 -9.753906 6.4375 -9.484375 C 6.9375 -9.222656 7.300781 -8.863281 7.53125 -8.40625 C 7.769531 -7.957031 7.890625 -7.441406 7.890625 -6.859375 C 7.890625 -6.203125 7.738281 -5.628906 7.4375 -5.140625 C 7.144531 -4.648438 6.679688 -4.296875 6.046875 -4.078125 L 8.28125 0 L 6.890625 0 L 4.8125 -3.859375 C 4.726562 -3.859375 4.644531 -3.859375 4.5625 -3.859375 L 2.390625 -3.859375 L 2.390625 0 Z M 2.390625 -4.9375 L 4.515625 -4.9375 C 5.304688 -4.9375 5.867188 -5.109375 6.203125 -5.453125 C 6.546875 -5.796875 6.71875 -6.265625 6.71875 -6.859375 C 6.71875 -7.453125 6.546875 -7.925781 6.203125 -8.28125 C 5.867188 -8.644531 5.300781 -8.828125 4.5 -8.828125 L 2.390625 -8.828125 Z M 2.390625 -4.9375" transform="translate(110.266 13.578)"/></g></g></g><g><g><g><path d="M 1.203125 0 L 1.203125 -9.890625 L 2.390625 -9.890625 L 2.390625 -4.984375 L 2.515625 -4.984375 L 6.953125 -9.890625 L 8.515625 -9.890625 L 4.359375 -5.421875 L 8.515625 0 L 7.0625 0 L 3.625 -4.59375 L 2.390625 -3.203125 L 2.390625 0 Z M 1.203125 0" transform="translate(122.383 13.578)"/></g></g></g><g><g><g><path d="M 2.390625 -9.890625 L 2.390625 0 L 1.203125 0 L 1.203125 -9.890625 Z M 2.390625 -9.890625" transform="translate(134.675 13.578)"/></g></g></g><g><g><g><path d="M 9.03125 -9.890625 L 9.03125 0 L 7.875 0 L 2.484375 -7.765625 L 2.390625 -7.765625 L 2.390625 0 L 1.203125 0 L 1.203125 -9.890625 L 2.359375 -9.890625 L 7.765625 -2.109375 L 7.859375 -2.109375 L 7.859375 -9.890625 Z M 9.03125 -9.890625" transform="translate(141.694 13.578)"/></g></g></g><g><g><g><path d="M 7.953125 -6.796875 C 7.742188 -7.441406 7.398438 -7.953125 6.921875 -8.328125 C 6.441406 -8.710938 5.847656 -8.90625 5.140625 -8.90625 C 4.546875 -8.90625 4.007812 -8.753906 3.53125 -8.453125 C 3.050781 -8.148438 2.671875 -7.703125 2.390625 -7.109375 C 2.109375 -6.523438 1.96875 -5.800781 1.96875 -4.9375 C 1.96875 -4.082031 2.109375 -3.359375 2.390625 -2.765625 C 2.679688 -2.179688 3.070312 -1.738281 3.5625 -1.4375 C 4.050781 -1.132812 4.601562 -0.984375 5.21875 -0.984375 C 5.769531 -0.984375 6.257812 -1.097656 6.6875 -1.328125 C 7.125 -1.566406 7.460938 -1.90625 7.703125 -2.34375 C 7.953125 -2.78125 8.082031 -3.289062 8.09375 -3.875 L 5.484375 -3.875 L 5.484375 -4.9375 L 9.25 -4.9375 L 9.25 -3.875 C 9.25 -3.0625 9.078125 -2.351562 8.734375 -1.75 C 8.390625 -1.15625 7.910156 -0.691406 7.296875 -0.359375 C 6.691406 -0.0234375 6 0.140625 5.21875 0.140625 C 4.34375 0.140625 3.570312 -0.0625 2.90625 -0.46875 C 2.25 -0.882812 1.734375 -1.472656 1.359375 -2.234375 C 0.992188 -2.992188 0.8125 -3.894531 0.8125 -4.9375 C 0.8125 -5.976562 0.992188 -6.878906 1.359375 -7.640625 C 1.734375 -8.398438 2.242188 -8.984375 2.890625 -9.390625 C 3.546875 -9.804688 4.296875 -10.015625 5.140625 -10.015625 C 5.828125 -10.015625 6.453125 -9.878906 7.015625 -9.609375 C 7.585938 -9.335938 8.0625 -8.957031 8.4375 -8.46875 C 8.8125 -7.988281 9.0625 -7.429688 9.1875 -6.796875 Z M 7.953125 -6.796875" transform="translate(155.356 13.578)"/></g></g></g><g><g><g><path d="M 1.203125 -9.890625 L 2.625 -9.890625 L 5.984375 -1.6875 L 6.109375 -1.6875 L 9.46875 -9.890625 L 10.890625 -9.890625 L 10.890625 0 L 9.765625 0 L 9.765625 -7.515625 L 9.671875 -7.515625 L 6.578125 0 L 5.5 0 L 2.40625 -7.515625 L 2.3125 -7.515625 L 2.3125 0 L 1.203125 0 Z M 1.203125 -9.890625" transform="translate(18.707 27.828)"/></g></g></g><g><g><g><path d="M 1.609375 0 L 0.34375 0 L 3.984375 -9.890625 L 5.21875 -9.890625 L 8.84375 0 L 7.59375 0 L 6.59375 -2.796875 L 2.59375 -2.796875 Z M 2.96875 -3.859375 L 6.21875 -3.859375 L 4.640625 -8.328125 L 4.5625 -8.328125 Z M 2.96875 -3.859375" transform="translate(34.532 27.828)"/></g></g></g><g><g><g><path d="M 9.03125 -9.890625 L 9.03125 0 L 7.875 0 L 2.484375 -7.765625 L 2.390625 -7.765625 L 2.390625 0 L 1.203125 0 L 1.203125 -9.890625 L 2.359375 -9.890625 L 7.765625 -2.109375 L 7.859375 -2.109375 L 7.859375 -9.890625 Z M 9.03125 -9.890625" transform="translate(47.151 27.828)"/></g></g></g><g><g><g><path d="M 1.609375 0 L 0.34375 0 L 3.984375 -9.890625 L 5.21875 -9.890625 L 8.84375 0 L 7.59375 0 L 6.59375 -2.796875 L 2.59375 -2.796875 Z M 2.96875 -3.859375 L 6.21875 -3.859375 L 4.640625 -8.328125 L 4.5625 -8.328125 Z M 2.96875 -3.859375" transform="translate(60.813 27.828)"/></g></g></g><g><g><g><path d="M 7.953125 -6.796875 C 7.742188 -7.441406 7.398438 -7.953125 6.921875 -8.328125 C 6.441406 -8.710938 5.847656 -8.90625 5.140625 -8.90625 C 4.546875 -8.90625 4.007812 -8.753906 3.53125 -8.453125 C 3.050781 -8.148438 2.671875 -7.703125 2.390625 -7.109375 C 2.109375 -6.523438 1.96875 -5.800781 1.96875 -4.9375 C 1.96875 -4.082031 2.109375 -3.359375 2.390625 -2.765625 C 2.679688 -2.179688 3.070312 -1.738281 3.5625 -1.4375 C 4.050781 -1.132812 4.601562 -0.984375 5.21875 -0.984375 C 5.769531 -0.984375 6.257812 -1.097656 6.6875 -1.328125 C 7.125 -1.566406 7.460938 -1.90625 7.703125 -2.34375 C 7.953125 -2.78125 8.082031 -3.289062 8.09375 -3.875 L 5.484375 -3.875 L 5.484375 -4.9375 L 9.25 -4.9375 L 9.25 -3.875 C 9.25 -3.0625 9.078125 -2.351562 8.734375 -1.75 C 8.390625 -1.15625 7.910156 -0.691406 7.296875 -0.359375 C 6.691406 -0.0234375 6 0.140625 5.21875 0.140625 C 4.34375 0.140625 3.570312 -0.0625 2.90625 -0.46875 C 2.25 -0.882812 1.734375 -1.472656 1.359375 -2.234375 C 0.992188 -2.992188 0.8125 -3.894531 0.8125 -4.9375 C 0.8125 -5.976562 0.992188 -6.878906 1.359375 -7.640625 C 1.734375 -8.398438 2.242188 -8.984375 2.890625 -9.390625 C 3.546875 -9.804688 4.296875 -10.015625 5.140625 -10.015625 C 5.828125 -10.015625 6.453125 -9.878906 7.015625 -9.609375 C 7.585938 -9.335938 8.0625 -8.957031 8.4375 -8.46875 C 8.8125 -7.988281 9.0625 -7.429688 9.1875 -6.796875 Z M 7.953125 -6.796875" transform="translate(73.433 27.828)"/></g></g></g><g><g><g><path d="M 1.203125 0 L 1.203125 -9.890625 L 7.15625 -9.890625 L 7.15625 -8.828125 L 2.390625 -8.828125 L 2.390625 -5.484375 L 6.859375 -5.484375 L 6.859375 -4.421875 L 2.390625 -4.421875 L 2.390625 -1.0625 L 7.234375 -1.0625 L 7.234375 0 Z M 1.203125 0" transform="translate(86.96 27.828)"/></g></g></g><g><g><g><path d="M 1.203125 -9.890625 L 2.625 -9.890625 L 5.984375 -1.6875 L 6.109375 -1.6875 L 9.46875 -9.890625 L 10.890625 -9.890625 L 10.890625 0 L 9.765625 0 L 9.765625 -7.515625 L 9.671875 -7.515625 L 6.578125 0 L 5.5 0 L 2.40625 -7.515625 L 2.3125 -7.515625 L 2.3125 0 L 1.203125 0 Z M 1.203125 -9.890625" transform="translate(98.517 27.828)"/></g></g></g><g><g><g><path d="M 1.203125 0 L 1.203125 -9.890625 L 7.15625 -9.890625 L 7.15625 -8.828125 L 2.390625 -8.828125 L 2.390625 -5.484375 L 6.859375 -5.484375 L 6.859375 -4.421875 L 2.390625 -4.421875 L 2.390625 -1.0625 L 7.234375 -1.0625 L 7.234375 0 Z M 1.203125 0" transform="translate(114.342 27.828)"/></g></g></g><g><g><g><path d="M 9.03125 -9.890625 L 9.03125 0 L 7.875 0 L 2.484375 -7.765625 L 2.390625 -7.765625 L 2.390625 0 L 1.203125 0 L 1.203125 -9.890625 L 2.359375 -9.890625 L 7.765625 -2.109375 L 7.859375 -2.109375 L 7.859375 -9.890625 Z M 9.03125 -9.890625" transform="translate(125.9 27.828)"/></g></g></g><g><g><g><path d="M 0.65625 -8.828125 L 0.65625 -9.890625 L 8.078125 -9.890625 L 8.078125 -8.828125 L 4.96875 -8.828125 L 4.96875 0 L 3.765625 0 L 3.765625 -8.828125 Z M 0.65625 -8.828125" transform="translate(139.561 27.828)"/></g></g></g></g></g></g><g mask="url(#l)"><g><g clip-path="url(#m)" transform="translate(231 178)"><g clip-path="url(#n)"><path fill="#120047" d="M 25.832031 2.472656 C 27.226562 2.472656 28.464844 3.414062 28.847656 4.769531 L 31.003906 12.40625 L 31.085938 12.6875 L 31.257812 12.921875 L 32.355469 14.398438 C 32.960938 15.214844 33.296875 16.226562 33.296875 17.25 L 33.296875 24.636719 L 1.957031 24.636719 L 1.957031 17.25 C 1.957031 16.226562 2.292969 15.214844 2.898438 14.398438 L 3.996094 12.921875 L 4.167969 12.6875 L 4.25 12.40625 L 6.410156 4.769531 C 6.792969 3.414062 8.03125 2.472656 9.421875 2.472656 L 25.832031 2.472656 M 25.832031 0.886719 L 9.421875 0.886719 C 7.320312 0.886719 5.476562 2.292969 4.902344 4.332031 L 2.742188 11.972656 L 1.644531 13.449219 C 0.832031 14.542969 0.390625 15.878906 0.390625 17.25 L 0.390625 26.222656 L 34.863281 26.222656 L 34.863281 17.25 C 34.863281 15.878906 34.421875 14.542969 33.609375 13.449219 L 32.511719 11.972656 L 30.355469 4.332031 C 29.777344 2.292969 27.933594 0.886719 25.832031 0.886719 Z M 25.832031 0.886719"/></g><g clip-path="url(#o)"><path fill="#120047" d="M 34.863281 24.636719 L 30.164062 24.636719 L 30.164062 27.804688 C 30.164062 28.679688 30.863281 29.386719 31.730469 29.386719 L 33.296875 29.386719 C 34.160156 29.386719 34.863281 28.679688 34.863281 27.804688 Z M 34.863281 24.636719"/></g><g clip-path="url(#p)"><path fill="#120047" d="M 5.09375 24.636719 L 0.390625 24.636719 L 0.390625 27.804688 C 0.390625 28.679688 1.09375 29.386719 1.957031 29.386719 L 3.527344 29.386719 C 4.390625 29.386719 5.09375 28.679688 5.09375 27.804688 Z M 5.09375 24.636719"/></g><g clip-path="url(#q)"><path fill="#120047" d="M 32.050781 12.917969 L 33.792969 12.332031 C 34.433594 12.117188 34.863281 11.511719 34.863281 10.828125 L 34.863281 10.386719 C 34.863281 9.515625 34.160156 8.804688 33.296875 8.804688 L 30.164062 8.804688 Z M 32.050781 12.917969"/></g><g clip-path="url(#r)"><path fill="#120047" d="M 3.054688 12.867188 L 1.464844 12.332031 C 0.824219 12.117188 0.390625 11.511719 0.390625 10.828125 L 0.390625 10.386719 C 0.390625 9.515625 1.09375 8.804688 1.957031 8.804688 L 5.09375 8.804688 Z M 3.054688 12.867188"/></g><g clip-path="url(#s)"><path fill="#120047" d="M 33.609375 13.449219 L 32.511719 11.972656 L 32.066406 10.386719 L 3.191406 10.386719 L 2.742188 11.972656 L 1.644531 13.449219 C 0.832031 14.542969 0.390625 15.878906 0.390625 17.25 L 0.390625 26.222656 L 34.863281 26.222656 L 34.863281 17.25 C 34.863281 15.878906 34.421875 14.546875 33.609375 13.449219 Z M 5.875 19.886719 C 4.578125 19.886719 3.527344 18.824219 3.527344 17.511719 C 3.527344 16.203125 4.578125 15.136719 5.875 15.136719 C 7.171875 15.136719 8.226562 16.203125 8.226562 17.511719 C 8.226562 18.824219 7.171875 19.886719 5.875 19.886719 Z M 29.378906 19.886719 C 28.082031 19.886719 27.027344 18.824219 27.027344 17.511719 C 27.027344 16.203125 28.082031 15.136719 29.378906 15.136719 C 30.675781 15.136719 31.730469 16.203125 31.730469 17.511719 C 31.730469 18.824219 30.675781 19.886719 29.378906 19.886719 Z M 29.378906 19.886719"/></g></g></g></g></svg>