<svg xmlns="http://www.w3.org/2000/svg" width="375" viewBox="0 0 375 150" height="150" version="1.0"><defs><clipPath id="a"><path d="M 33.207031 17.960938 L 116.054688 17.960938 L 116.054688 114.769531 L 33.207031 114.769531 Z M 33.207031 17.960938"/></clipPath><clipPath id="b"><path d="M 6.902344 93.359375 L 32.96875 93.359375 L 32.96875 113 L 6.902344 113 Z M 6.902344 93.359375"/></clipPath><clipPath id="c"><path d="M 29 111 L 32.96875 111 L 32.96875 114.769531 L 29 114.769531 Z M 29 111"/></clipPath><clipPath id="d"><path d="M 6.902344 111 L 11 111 L 11 114.769531 L 6.902344 114.769531 Z M 6.902344 111"/></clipPath><clipPath id="e"><path d="M 29 99 L 32.96875 99 L 32.96875 103 L 29 103 Z M 29 99"/></clipPath><clipPath id="f"><path d="M 6.902344 99 L 11 99 L 11 103 L 6.902344 103 Z M 6.902344 99"/></clipPath><clipPath id="g"><path d="M 6.902344 100 L 32.96875 100 L 32.96875 113 L 6.902344 113 Z M 6.902344 100"/></clipPath></defs><g fill="#FFF"><g><g><path d="M 13.46875 -15.34375 C 14.695312 -15.34375 15.78125 -15.503906 16.71875 -15.828125 C 17.664062 -16.148438 18.460938 -16.601562 19.109375 -17.1875 C 19.753906 -17.769531 20.238281 -18.46875 20.5625 -19.28125 C 20.882812 -20.101562 21.046875 -21.003906 21.046875 -21.984375 C 21.046875 -24.015625 20.421875 -25.597656 19.171875 -26.734375 C 17.921875 -27.878906 16.019531 -28.453125 13.46875 -28.453125 L 8.359375 -28.453125 L 8.359375 -15.34375 Z M 13.46875 -31.84375 C 15.476562 -31.84375 17.226562 -31.609375 18.71875 -31.140625 C 20.207031 -30.679688 21.441406 -30.019531 22.421875 -29.15625 C 23.398438 -28.300781 24.128906 -27.265625 24.609375 -26.046875 C 25.097656 -24.835938 25.34375 -23.484375 25.34375 -21.984375 C 25.34375 -20.503906 25.082031 -19.144531 24.5625 -17.90625 C 24.039062 -16.675781 23.28125 -15.617188 22.28125 -14.734375 C 21.28125 -13.847656 20.039062 -13.15625 18.5625 -12.65625 C 17.09375 -12.15625 15.394531 -11.90625 13.46875 -11.90625 L 8.359375 -11.90625 L 8.359375 0 L 4.0625 0 L 4.0625 -31.84375 Z M 13.46875 -31.84375" transform="translate(129.618 114.132)"/></g></g></g><g fill="#FFF"><g><g><path d="M 12.890625 -16.421875 C 14.140625 -16.421875 15.238281 -16.570312 16.1875 -16.875 C 17.144531 -17.1875 17.945312 -17.617188 18.59375 -18.171875 C 19.238281 -18.722656 19.722656 -19.382812 20.046875 -20.15625 C 20.367188 -20.925781 20.53125 -21.78125 20.53125 -22.71875 C 20.53125 -24.613281 19.90625 -26.039062 18.65625 -27 C 17.414062 -27.96875 15.550781 -28.453125 13.0625 -28.453125 L 8.359375 -28.453125 L 8.359375 -16.421875 Z M 27.609375 0 L 23.78125 0 C 23 0 22.421875 -0.300781 22.046875 -0.90625 L 13.78125 -12.296875 C 13.53125 -12.648438 13.257812 -12.90625 12.96875 -13.0625 C 12.675781 -13.21875 12.226562 -13.296875 11.625 -13.296875 L 8.359375 -13.296875 L 8.359375 0 L 4.0625 0 L 4.0625 -31.84375 L 13.0625 -31.84375 C 15.082031 -31.84375 16.828125 -31.640625 18.296875 -31.234375 C 19.765625 -30.828125 20.972656 -30.238281 21.921875 -29.46875 C 22.878906 -28.695312 23.585938 -27.765625 24.046875 -26.671875 C 24.503906 -25.585938 24.734375 -24.375 24.734375 -23.03125 C 24.734375 -21.90625 24.554688 -20.851562 24.203125 -19.875 C 23.847656 -18.894531 23.332031 -18.015625 22.65625 -17.234375 C 21.988281 -16.453125 21.164062 -15.785156 20.1875 -15.234375 C 19.21875 -14.691406 18.117188 -14.28125 16.890625 -14 C 17.441406 -13.6875 17.914062 -13.234375 18.3125 -12.640625 Z M 27.609375 0" transform="translate(161.156 114.132)"/></g></g></g><g fill="#FFF"><g><g><path d="M 8.359375 -17.890625 L 9.984375 -17.890625 C 10.546875 -17.890625 10.992188 -17.957031 11.328125 -18.09375 C 11.671875 -18.238281 11.984375 -18.484375 12.265625 -18.828125 L 22.875 -30.828125 C 23.164062 -31.210938 23.472656 -31.476562 23.796875 -31.625 C 24.128906 -31.769531 24.53125 -31.84375 25 -31.84375 L 28.65625 -31.84375 L 16.515625 -18.140625 C 16.210938 -17.785156 15.925781 -17.492188 15.65625 -17.265625 C 15.382812 -17.035156 15.09375 -16.84375 14.78125 -16.6875 C 15.175781 -16.550781 15.535156 -16.351562 15.859375 -16.09375 C 16.191406 -15.84375 16.515625 -15.507812 16.828125 -15.09375 L 29.5 0 L 25.765625 0 C 25.484375 0 25.238281 -0.015625 25.03125 -0.046875 C 24.832031 -0.0859375 24.660156 -0.148438 24.515625 -0.234375 C 24.367188 -0.316406 24.238281 -0.410156 24.125 -0.515625 C 24.007812 -0.628906 23.898438 -0.757812 23.796875 -0.90625 L 12.828125 -13.5625 C 12.523438 -13.925781 12.203125 -14.1875 11.859375 -14.34375 C 11.523438 -14.5 11.007812 -14.578125 10.3125 -14.578125 L 8.359375 -14.578125 L 8.359375 0 L 4.0625 0 L 4.0625 -31.84375 L 8.359375 -31.84375 Z M 8.359375 -17.890625" transform="translate(193.849 114.132)"/></g></g></g><g fill="#FFF"><g><g><path d="M 26.421875 -6.578125 C 26.660156 -6.578125 26.867188 -6.484375 27.046875 -6.296875 L 28.765625 -4.453125 C 27.460938 -2.929688 25.878906 -1.75 24.015625 -0.90625 C 22.148438 -0.0625 19.898438 0.359375 17.265625 0.359375 C 14.984375 0.359375 12.910156 -0.0351562 11.046875 -0.828125 C 9.179688 -1.617188 7.585938 -2.726562 6.265625 -4.15625 C 4.953125 -5.59375 3.929688 -7.3125 3.203125 -9.3125 C 2.472656 -11.3125 2.109375 -13.515625 2.109375 -15.921875 C 2.109375 -18.316406 2.484375 -20.515625 3.234375 -22.515625 C 3.992188 -24.515625 5.054688 -26.234375 6.421875 -27.671875 C 7.796875 -29.109375 9.4375 -30.222656 11.34375 -31.015625 C 13.257812 -31.804688 15.375 -32.203125 17.6875 -32.203125 C 19.957031 -32.203125 21.957031 -31.835938 23.6875 -31.109375 C 25.425781 -30.390625 26.953125 -29.40625 28.265625 -28.15625 L 26.84375 -26.1875 C 26.757812 -26.03125 26.644531 -25.90625 26.5 -25.8125 C 26.363281 -25.71875 26.175781 -25.671875 25.9375 -25.671875 C 25.664062 -25.671875 25.335938 -25.8125 24.953125 -26.09375 C 24.566406 -26.382812 24.0625 -26.707031 23.4375 -27.0625 C 22.820312 -27.425781 22.046875 -27.75 21.109375 -28.03125 C 20.179688 -28.320312 19.035156 -28.46875 17.671875 -28.46875 C 16.023438 -28.46875 14.519531 -28.179688 13.15625 -27.609375 C 11.789062 -27.046875 10.613281 -26.222656 9.625 -25.140625 C 8.644531 -24.054688 7.878906 -22.734375 7.328125 -21.171875 C 6.785156 -19.617188 6.515625 -17.867188 6.515625 -15.921875 C 6.515625 -13.929688 6.796875 -12.15625 7.359375 -10.59375 C 7.929688 -9.039062 8.710938 -7.726562 9.703125 -6.65625 C 10.691406 -5.582031 11.851562 -4.765625 13.1875 -4.203125 C 14.53125 -3.640625 15.976562 -3.359375 17.53125 -3.359375 C 18.476562 -3.359375 19.332031 -3.410156 20.09375 -3.515625 C 20.863281 -3.628906 21.570312 -3.804688 22.21875 -4.046875 C 22.863281 -4.285156 23.460938 -4.582031 24.015625 -4.9375 C 24.566406 -5.300781 25.117188 -5.738281 25.671875 -6.25 C 25.921875 -6.46875 26.171875 -6.578125 26.421875 -6.578125 Z M 26.421875 -6.578125" transform="translate(244.367 114.132)"/></g></g></g><g fill="#FFF"><g><g><path d="M 25.609375 -28.234375 L 15.296875 -28.234375 L 15.296875 0 L 11 0 L 11 -28.234375 L 0.671875 -28.234375 L 0.671875 -31.84375 L 25.609375 -31.84375 Z M 25.609375 -28.234375" transform="translate(278.905 114.132)"/></g></g></g><g fill="#FFF"><g><g><path d="M 12.890625 -16.421875 C 14.140625 -16.421875 15.238281 -16.570312 16.1875 -16.875 C 17.144531 -17.1875 17.945312 -17.617188 18.59375 -18.171875 C 19.238281 -18.722656 19.722656 -19.382812 20.046875 -20.15625 C 20.367188 -20.925781 20.53125 -21.78125 20.53125 -22.71875 C 20.53125 -24.613281 19.90625 -26.039062 18.65625 -27 C 17.414062 -27.96875 15.550781 -28.453125 13.0625 -28.453125 L 8.359375 -28.453125 L 8.359375 -16.421875 Z M 27.609375 0 L 23.78125 0 C 23 0 22.421875 -0.300781 22.046875 -0.90625 L 13.78125 -12.296875 C 13.53125 -12.648438 13.257812 -12.90625 12.96875 -13.0625 C 12.675781 -13.21875 12.226562 -13.296875 11.625 -13.296875 L 8.359375 -13.296875 L 8.359375 0 L 4.0625 0 L 4.0625 -31.84375 L 13.0625 -31.84375 C 15.082031 -31.84375 16.828125 -31.640625 18.296875 -31.234375 C 19.765625 -30.828125 20.972656 -30.238281 21.921875 -29.46875 C 22.878906 -28.695312 23.585938 -27.765625 24.046875 -26.671875 C 24.503906 -25.585938 24.734375 -24.375 24.734375 -23.03125 C 24.734375 -21.90625 24.554688 -20.851562 24.203125 -19.875 C 23.847656 -18.894531 23.332031 -18.015625 22.65625 -17.234375 C 21.988281 -16.453125 21.164062 -15.785156 20.1875 -15.234375 C 19.21875 -14.691406 18.117188 -14.28125 16.890625 -14 C 17.441406 -13.6875 17.914062 -13.234375 18.3125 -12.640625 Z M 27.609375 0" transform="translate(309.998 114.132)"/></g></g></g><g fill="#FFF"><g><g><path d="M 22.140625 -3.625 L 22.140625 0 L 4.0625 0 L 4.0625 -31.84375 L 8.359375 -31.84375 L 8.359375 -3.625 Z M 22.140625 -3.625" transform="translate(342.691 114.132)"/></g></g></g><g fill="#FFF"><g><g><path d="M 1.21875 -7.5625 L 3.46875 -1.203125 L 3.5625 -1.203125 L 5.796875 -7.5625 L 6.765625 -7.5625 L 3.984375 0 L 3.046875 0 L 0.265625 -7.5625 Z M 1.21875 -7.5625" transform="translate(76.782 132.644)"/></g></g></g><g fill="#FFF"><g><g><path d="M 1.828125 -7.5625 L 1.828125 0 L 0.921875 0 L 0.921875 -7.5625 Z M 1.828125 -7.5625" transform="translate(86.43 132.644)"/></g></g></g><g fill="#FFF"><g><g><path d="M 5.046875 -5.671875 C 5.003906 -6.046875 4.820312 -6.332031 4.5 -6.53125 C 4.1875 -6.738281 3.800781 -6.84375 3.34375 -6.84375 C 2.84375 -6.84375 2.441406 -6.722656 2.140625 -6.484375 C 1.835938 -6.253906 1.6875 -5.957031 1.6875 -5.59375 C 1.6875 -5.320312 1.769531 -5.101562 1.9375 -4.9375 C 2.101562 -4.769531 2.296875 -4.640625 2.515625 -4.546875 C 2.742188 -4.453125 2.953125 -4.382812 3.140625 -4.34375 L 3.90625 -4.125 C 4.101562 -4.082031 4.320312 -4.015625 4.5625 -3.921875 C 4.8125 -3.828125 5.046875 -3.703125 5.265625 -3.546875 C 5.484375 -3.390625 5.664062 -3.1875 5.8125 -2.9375 C 5.957031 -2.695312 6.03125 -2.398438 6.03125 -2.046875 C 6.03125 -1.640625 5.921875 -1.269531 5.703125 -0.9375 C 5.492188 -0.613281 5.1875 -0.351562 4.78125 -0.15625 C 4.375 0.0390625 3.882812 0.140625 3.3125 0.140625 C 2.5 0.140625 1.851562 -0.0507812 1.375 -0.4375 C 0.894531 -0.820312 0.632812 -1.328125 0.59375 -1.953125 L 1.53125 -1.953125 C 1.5625 -1.660156 1.660156 -1.421875 1.828125 -1.234375 C 1.992188 -1.054688 2.207031 -0.921875 2.46875 -0.828125 C 2.726562 -0.734375 3.007812 -0.6875 3.3125 -0.6875 C 3.65625 -0.6875 3.960938 -0.742188 4.234375 -0.859375 C 4.515625 -0.972656 4.738281 -1.132812 4.90625 -1.34375 C 5.070312 -1.550781 5.15625 -1.789062 5.15625 -2.0625 C 5.15625 -2.3125 5.082031 -2.515625 4.9375 -2.671875 C 4.800781 -2.835938 4.617188 -2.96875 4.390625 -3.0625 C 4.160156 -3.15625 3.910156 -3.242188 3.640625 -3.328125 L 2.71875 -3.59375 C 2.125 -3.757812 1.65625 -4 1.3125 -4.3125 C 0.96875 -4.625 0.796875 -5.035156 0.796875 -5.546875 C 0.796875 -5.972656 0.910156 -6.34375 1.140625 -6.65625 C 1.367188 -6.96875 1.675781 -7.210938 2.0625 -7.390625 C 2.457031 -7.566406 2.894531 -7.65625 3.375 -7.65625 C 3.863281 -7.65625 4.296875 -7.566406 4.671875 -7.390625 C 5.054688 -7.222656 5.359375 -6.988281 5.578125 -6.6875 C 5.804688 -6.382812 5.925781 -6.046875 5.9375 -5.671875 Z M 5.046875 -5.671875" transform="translate(91.796 132.644)"/></g></g></g><g fill="#FFF"><g><g><path d="M 1.828125 -7.5625 L 1.828125 0 L 0.921875 0 L 0.921875 -7.5625 Z M 1.828125 -7.5625" transform="translate(101.046 132.644)"/></g></g></g><g fill="#FFF"><g><g><path d="M 0.5 -6.75 L 0.5 -7.5625 L 6.171875 -7.5625 L 6.171875 -6.75 L 3.796875 -6.75 L 3.796875 0 L 2.875 0 L 2.875 -6.75 Z M 0.5 -6.75" transform="translate(106.412 132.644)"/></g></g></g><g fill="#FFF"><g><g><path d="M 7.296875 -3.78125 C 7.296875 -2.976562 7.148438 -2.285156 6.859375 -1.703125 C 6.566406 -1.128906 6.171875 -0.679688 5.671875 -0.359375 C 5.171875 -0.046875 4.597656 0.109375 3.953125 0.109375 C 3.304688 0.109375 2.734375 -0.046875 2.234375 -0.359375 C 1.734375 -0.679688 1.335938 -1.128906 1.046875 -1.703125 C 0.765625 -2.285156 0.625 -2.976562 0.625 -3.78125 C 0.625 -4.570312 0.765625 -5.257812 1.046875 -5.84375 C 1.335938 -6.425781 1.734375 -6.875 2.234375 -7.1875 C 2.734375 -7.5 3.304688 -7.65625 3.953125 -7.65625 C 4.597656 -7.65625 5.171875 -7.5 5.671875 -7.1875 C 6.171875 -6.875 6.566406 -6.425781 6.859375 -5.84375 C 7.148438 -5.257812 7.296875 -4.570312 7.296875 -3.78125 Z M 6.40625 -3.78125 C 6.40625 -4.4375 6.296875 -4.988281 6.078125 -5.4375 C 5.859375 -5.882812 5.5625 -6.222656 5.1875 -6.453125 C 4.820312 -6.679688 4.410156 -6.796875 3.953125 -6.796875 C 3.492188 -6.796875 3.078125 -6.679688 2.703125 -6.453125 C 2.335938 -6.222656 2.046875 -5.882812 1.828125 -5.4375 C 1.609375 -4.988281 1.5 -4.4375 1.5 -3.78125 C 1.5 -3.125 1.609375 -2.570312 1.828125 -2.125 C 2.046875 -1.675781 2.335938 -1.332031 2.703125 -1.09375 C 3.078125 -0.863281 3.492188 -0.75 3.953125 -0.75 C 4.410156 -0.75 4.820312 -0.863281 5.1875 -1.09375 C 5.5625 -1.332031 5.859375 -1.675781 6.078125 -2.125 C 6.296875 -2.570312 6.40625 -3.125 6.40625 -3.78125 Z M 6.40625 -3.78125" transform="translate(115.705 132.644)"/></g></g></g><g fill="#FFF"><g><g><path d="M 0.921875 0 L 0.921875 -7.5625 L 3.46875 -7.5625 C 4.0625 -7.5625 4.546875 -7.457031 4.921875 -7.25 C 5.296875 -7.050781 5.570312 -6.773438 5.75 -6.421875 C 5.9375 -6.078125 6.03125 -5.679688 6.03125 -5.234375 C 6.03125 -4.734375 5.914062 -4.296875 5.6875 -3.921875 C 5.457031 -3.554688 5.101562 -3.289062 4.625 -3.125 L 6.328125 0 L 5.265625 0 L 3.671875 -2.953125 C 3.609375 -2.953125 3.546875 -2.953125 3.484375 -2.953125 L 1.828125 -2.953125 L 1.828125 0 Z M 1.828125 -3.78125 L 3.453125 -3.78125 C 4.054688 -3.78125 4.488281 -3.910156 4.75 -4.171875 C 5.007812 -4.429688 5.140625 -4.785156 5.140625 -5.234375 C 5.140625 -5.691406 5.007812 -6.054688 4.75 -6.328125 C 4.488281 -6.609375 4.050781 -6.75 3.4375 -6.75 L 1.828125 -6.75 Z M 1.828125 -3.78125" transform="translate(126.24 132.644)"/></g></g></g><g fill="#FFF"><g><g><path d="M 0.921875 0 L 0.921875 -7.5625 L 3.46875 -7.5625 C 4.0625 -7.5625 4.546875 -7.453125 4.921875 -7.234375 C 5.296875 -7.023438 5.570312 -6.738281 5.75 -6.375 C 5.9375 -6.007812 6.03125 -5.609375 6.03125 -5.171875 C 6.03125 -4.722656 5.941406 -4.316406 5.765625 -3.953125 C 5.585938 -3.585938 5.304688 -3.296875 4.921875 -3.078125 C 4.546875 -2.867188 4.066406 -2.765625 3.484375 -2.765625 L 1.828125 -2.765625 L 1.828125 0 Z M 1.828125 -3.578125 L 3.453125 -3.578125 C 4.054688 -3.578125 4.488281 -3.726562 4.75 -4.03125 C 5.007812 -4.332031 5.140625 -4.710938 5.140625 -5.171875 C 5.140625 -5.617188 5.007812 -5.992188 4.75 -6.296875 C 4.488281 -6.597656 4.050781 -6.75 3.4375 -6.75 L 1.828125 -6.75 Z M 1.828125 -3.578125" transform="translate(141.046 132.644)"/></g></g></g><g fill="#FFF"><g><g><path d="M 1.21875 0 L 0.265625 0 L 3.046875 -7.5625 L 3.984375 -7.5625 L 6.765625 0 L 5.796875 0 L 5.046875 -2.140625 L 1.984375 -2.140625 Z M 2.265625 -2.953125 L 4.75 -2.953125 L 3.546875 -6.359375 L 3.484375 -6.359375 Z M 2.265625 -2.953125" transform="translate(150.266 132.644)"/></g></g></g><g fill="#FFF"><g><g><path d="M 0.921875 0 L 0.921875 -7.5625 L 3.46875 -7.5625 C 4.0625 -7.5625 4.546875 -7.457031 4.921875 -7.25 C 5.296875 -7.050781 5.570312 -6.773438 5.75 -6.421875 C 5.9375 -6.078125 6.03125 -5.679688 6.03125 -5.234375 C 6.03125 -4.734375 5.914062 -4.296875 5.6875 -3.921875 C 5.457031 -3.554688 5.101562 -3.289062 4.625 -3.125 L 6.328125 0 L 5.265625 0 L 3.671875 -2.953125 C 3.609375 -2.953125 3.546875 -2.953125 3.484375 -2.953125 L 1.828125 -2.953125 L 1.828125 0 Z M 1.828125 -3.78125 L 3.453125 -3.78125 C 4.054688 -3.78125 4.488281 -3.910156 4.75 -4.171875 C 5.007812 -4.429688 5.140625 -4.785156 5.140625 -5.234375 C 5.140625 -5.691406 5.007812 -6.054688 4.75 -6.328125 C 4.488281 -6.609375 4.050781 -6.75 3.4375 -6.75 L 1.828125 -6.75 Z M 1.828125 -3.78125" transform="translate(159.914 132.644)"/></g></g></g><g fill="#FFF"><g><g><path d="M 0.921875 0 L 0.921875 -7.5625 L 1.828125 -7.5625 L 1.828125 -3.8125 L 1.921875 -3.8125 L 5.3125 -7.5625 L 6.515625 -7.5625 L 3.328125 -4.140625 L 6.515625 0 L 5.40625 0 L 2.78125 -3.515625 L 1.828125 -2.453125 L 1.828125 0 Z M 0.921875 0" transform="translate(169.178 132.644)"/></g></g></g><g fill="#FFF"><g><g><path d="M 1.828125 -7.5625 L 1.828125 0 L 0.921875 0 L 0.921875 -7.5625 Z M 1.828125 -7.5625" transform="translate(178.575 132.644)"/></g></g></g><g fill="#FFF"><g><g><path d="M 6.90625 -7.5625 L 6.90625 0 L 6.015625 0 L 1.90625 -5.9375 L 1.828125 -5.9375 L 1.828125 0 L 0.921875 0 L 0.921875 -7.5625 L 1.796875 -7.5625 L 5.9375 -1.609375 L 6 -1.609375 L 6 -7.5625 Z M 6.90625 -7.5625" transform="translate(183.941 132.644)"/></g></g></g><g fill="#FFF"><g><g><path d="M 6.078125 -5.1875 C 5.921875 -5.6875 5.660156 -6.078125 5.296875 -6.359375 C 4.929688 -6.648438 4.472656 -6.796875 3.921875 -6.796875 C 3.472656 -6.796875 3.066406 -6.679688 2.703125 -6.453125 C 2.335938 -6.222656 2.046875 -5.882812 1.828125 -5.4375 C 1.609375 -4.988281 1.5 -4.4375 1.5 -3.78125 C 1.5 -3.125 1.609375 -2.570312 1.828125 -2.125 C 2.046875 -1.675781 2.34375 -1.332031 2.71875 -1.09375 C 3.09375 -0.863281 3.515625 -0.75 3.984375 -0.75 C 4.410156 -0.75 4.785156 -0.835938 5.109375 -1.015625 C 5.441406 -1.203125 5.703125 -1.457031 5.890625 -1.78125 C 6.078125 -2.113281 6.175781 -2.507812 6.1875 -2.96875 L 4.1875 -2.96875 L 4.1875 -3.78125 L 7.0625 -3.78125 L 7.0625 -2.96875 C 7.0625 -2.34375 6.929688 -1.800781 6.671875 -1.34375 C 6.410156 -0.882812 6.046875 -0.523438 5.578125 -0.265625 C 5.117188 -0.015625 4.585938 0.109375 3.984375 0.109375 C 3.316406 0.109375 2.726562 -0.046875 2.21875 -0.359375 C 1.71875 -0.679688 1.328125 -1.128906 1.046875 -1.703125 C 0.765625 -2.285156 0.625 -2.976562 0.625 -3.78125 C 0.625 -4.570312 0.765625 -5.257812 1.046875 -5.84375 C 1.328125 -6.425781 1.710938 -6.875 2.203125 -7.1875 C 2.703125 -7.5 3.273438 -7.65625 3.921875 -7.65625 C 4.453125 -7.65625 4.929688 -7.550781 5.359375 -7.34375 C 5.796875 -7.132812 6.160156 -6.84375 6.453125 -6.46875 C 6.742188 -6.101562 6.9375 -5.675781 7.03125 -5.1875 Z M 6.078125 -5.1875" transform="translate(194.387 132.644)"/></g></g></g><g fill="#FFF"><g><g><path d="M 0.921875 -7.5625 L 2 -7.5625 L 4.578125 -1.28125 L 4.65625 -1.28125 L 7.234375 -7.5625 L 8.328125 -7.5625 L 8.328125 0 L 7.46875 0 L 7.46875 -5.734375 L 7.390625 -5.734375 L 5.03125 0 L 4.203125 0 L 1.84375 -5.734375 L 1.765625 -5.734375 L 1.765625 0 L 0.921875 0 Z M 0.921875 -7.5625" transform="translate(210.272 132.644)"/></g></g></g><g fill="#FFF"><g><g><path d="M 1.21875 0 L 0.265625 0 L 3.046875 -7.5625 L 3.984375 -7.5625 L 6.765625 0 L 5.796875 0 L 5.046875 -2.140625 L 1.984375 -2.140625 Z M 2.265625 -2.953125 L 4.75 -2.953125 L 3.546875 -6.359375 L 3.484375 -6.359375 Z M 2.265625 -2.953125" transform="translate(222.371 132.644)"/></g></g></g><g fill="#FFF"><g><g><path d="M 6.90625 -7.5625 L 6.90625 0 L 6.015625 0 L 1.90625 -5.9375 L 1.828125 -5.9375 L 1.828125 0 L 0.921875 0 L 0.921875 -7.5625 L 1.796875 -7.5625 L 5.9375 -1.609375 L 6 -1.609375 L 6 -7.5625 Z M 6.90625 -7.5625" transform="translate(232.019 132.644)"/></g></g></g><g fill="#FFF"><g><g><path d="M 1.21875 0 L 0.265625 0 L 3.046875 -7.5625 L 3.984375 -7.5625 L 6.765625 0 L 5.796875 0 L 5.046875 -2.140625 L 1.984375 -2.140625 Z M 2.265625 -2.953125 L 4.75 -2.953125 L 3.546875 -6.359375 L 3.484375 -6.359375 Z M 2.265625 -2.953125" transform="translate(242.464 132.644)"/></g></g></g><g fill="#FFF"><g><g><path d="M 6.078125 -5.1875 C 5.921875 -5.6875 5.660156 -6.078125 5.296875 -6.359375 C 4.929688 -6.648438 4.472656 -6.796875 3.921875 -6.796875 C 3.472656 -6.796875 3.066406 -6.679688 2.703125 -6.453125 C 2.335938 -6.222656 2.046875 -5.882812 1.828125 -5.4375 C 1.609375 -4.988281 1.5 -4.4375 1.5 -3.78125 C 1.5 -3.125 1.609375 -2.570312 1.828125 -2.125 C 2.046875 -1.675781 2.34375 -1.332031 2.71875 -1.09375 C 3.09375 -0.863281 3.515625 -0.75 3.984375 -0.75 C 4.410156 -0.75 4.785156 -0.835938 5.109375 -1.015625 C 5.441406 -1.203125 5.703125 -1.457031 5.890625 -1.78125 C 6.078125 -2.113281 6.175781 -2.507812 6.1875 -2.96875 L 4.1875 -2.96875 L 4.1875 -3.78125 L 7.0625 -3.78125 L 7.0625 -2.96875 C 7.0625 -2.34375 6.929688 -1.800781 6.671875 -1.34375 C 6.410156 -0.882812 6.046875 -0.523438 5.578125 -0.265625 C 5.117188 -0.015625 4.585938 0.109375 3.984375 0.109375 C 3.316406 0.109375 2.726562 -0.046875 2.21875 -0.359375 C 1.71875 -0.679688 1.328125 -1.128906 1.046875 -1.703125 C 0.765625 -2.285156 0.625 -2.976562 0.625 -3.78125 C 0.625 -4.570312 0.765625 -5.257812 1.046875 -5.84375 C 1.328125 -6.425781 1.710938 -6.875 2.203125 -7.1875 C 2.703125 -7.5 3.273438 -7.65625 3.921875 -7.65625 C 4.453125 -7.65625 4.929688 -7.550781 5.359375 -7.34375 C 5.796875 -7.132812 6.160156 -6.84375 6.453125 -6.46875 C 6.742188 -6.101562 6.9375 -5.675781 7.03125 -5.1875 Z M 6.078125 -5.1875" transform="translate(252.112 132.644)"/></g></g></g><g fill="#FFF"><g><g><path d="M 0.921875 0 L 0.921875 -7.5625 L 5.46875 -7.5625 L 5.46875 -6.75 L 1.828125 -6.75 L 1.828125 -4.1875 L 5.234375 -4.1875 L 5.234375 -3.375 L 1.828125 -3.375 L 1.828125 -0.8125 L 5.53125 -0.8125 L 5.53125 0 Z M 0.921875 0" transform="translate(262.454 132.644)"/></g></g></g><g fill="#FFF"><g><g><path d="M 0.921875 -7.5625 L 2 -7.5625 L 4.578125 -1.28125 L 4.65625 -1.28125 L 7.234375 -7.5625 L 8.328125 -7.5625 L 8.328125 0 L 7.46875 0 L 7.46875 -5.734375 L 7.390625 -5.734375 L 5.03125 0 L 4.203125 0 L 1.84375 -5.734375 L 1.765625 -5.734375 L 1.765625 0 L 0.921875 0 Z M 0.921875 -7.5625" transform="translate(271.29 132.644)"/></g></g></g><g fill="#FFF"><g><g><path d="M 0.921875 0 L 0.921875 -7.5625 L 5.46875 -7.5625 L 5.46875 -6.75 L 1.828125 -6.75 L 1.828125 -4.1875 L 5.234375 -4.1875 L 5.234375 -3.375 L 1.828125 -3.375 L 1.828125 -0.8125 L 5.53125 -0.8125 L 5.53125 0 Z M 0.921875 0" transform="translate(283.39 132.644)"/></g></g></g><g fill="#FFF"><g><g><path d="M 6.90625 -7.5625 L 6.90625 0 L 6.015625 0 L 1.90625 -5.9375 L 1.828125 -5.9375 L 1.828125 0 L 0.921875 0 L 0.921875 -7.5625 L 1.796875 -7.5625 L 5.9375 -1.609375 L 6 -1.609375 L 6 -7.5625 Z M 6.90625 -7.5625" transform="translate(292.225 132.644)"/></g></g></g><g fill="#FFF"><g><g><path d="M 0.5 -6.75 L 0.5 -7.5625 L 6.171875 -7.5625 L 6.171875 -6.75 L 3.796875 -6.75 L 3.796875 0 L 2.875 0 L 2.875 -6.75 Z M 0.5 -6.75" transform="translate(302.67 132.644)"/></g></g></g><path fill="#9C824A" d="M 56.972656 7.671875 C 39.238281 7.671875 24.859375 22.050781 24.859375 39.789062 C 24.859375 57.523438 39.238281 71.902344 56.972656 71.902344 C 74.710938 71.902344 89.089844 57.523438 89.089844 39.789062 C 89.089844 22.050781 74.710938 7.671875 56.972656 7.671875"/><g clip-path="url(#a)"><path fill="#FAFAFA" d="M 103.539062 53.371094 L 103.539062 112.273438 L 97.082031 112.273438 L 97.082031 48.96875 Z M 85.476562 112.273438 L 81.058594 112.273438 L 81.058594 53.574219 L 85.476562 51.890625 Z M 85.476562 28.527344 L 85.476562 49.214844 L 78.550781 51.855469 L 78.550781 112.273438 L 77 112.273438 L 77 21.953125 Z M 62.617188 112.273438 L 57.386719 112.273438 L 57.386719 58.445312 L 62.617188 62.015625 Z M 116.042969 112.273438 L 106.046875 112.273438 L 106.046875 52.054688 L 97.082031 45.941406 L 95.996094 45.199219 L 94.578125 45.742188 L 87.980469 48.257812 L 87.980469 27.304688 L 77 18.789062 L 75.929688 17.960938 L 74.496094 18.582031 L 54.867188 27.097656 L 54.867188 55.222656 L 41.046875 60.5 L 41.046875 112.273438 L 33.21875 112.273438 L 33.21875 114.769531 L 43.550781 114.769531 L 43.550781 62.21875 L 54.867188 57.898438 L 54.867188 113.523438 L 54.878906 114.769531 L 65.125 114.769531 L 65.125 60.699219 L 57.378906 55.417969 L 57.371094 54.226562 L 57.371094 28.734375 L 74.496094 21.304688 L 74.496094 114.769531 L 87.980469 114.769531 L 87.980469 50.933594 L 94.578125 48.414062 L 94.578125 114.769531 L 116.042969 114.769531 L 116.042969 112.273438"/></g><g clip-path="url(#b)"><path fill="#FAFAFA" d="M 26.132812 94.546875 C 27.183594 94.546875 28.121094 95.257812 28.410156 96.273438 L 30.042969 102.011719 L 30.101562 102.222656 L 30.234375 102.398438 L 31.0625 103.507812 C 31.519531 104.121094 31.773438 104.882812 31.773438 105.648438 L 31.773438 111.199219 L 8.097656 111.199219 L 8.097656 105.648438 C 8.097656 104.882812 8.351562 104.121094 8.808594 103.507812 L 9.636719 102.398438 L 9.769531 102.222656 L 9.828125 102.011719 L 11.460938 96.273438 C 11.75 95.257812 12.683594 94.546875 13.734375 94.546875 L 26.132812 94.546875 M 26.132812 93.359375 L 13.734375 93.359375 C 12.148438 93.359375 10.757812 94.414062 10.320312 95.945312 L 8.691406 101.683594 L 7.863281 102.792969 C 7.246094 103.617188 6.914062 104.621094 6.914062 105.648438 L 6.914062 112.390625 L 32.957031 112.390625 L 32.957031 105.648438 C 32.957031 104.621094 32.625 103.617188 32.007812 102.792969 L 31.179688 101.683594 L 29.550781 95.945312 C 29.113281 94.414062 27.71875 93.359375 26.132812 93.359375 Z M 26.132812 93.359375"/></g><g clip-path="url(#c)"><path fill="#FAFAFA" d="M 32.957031 111.199219 L 29.40625 111.199219 L 29.40625 113.578125 C 29.40625 114.234375 29.933594 114.769531 30.589844 114.769531 L 31.773438 114.769531 C 32.425781 114.769531 32.957031 114.234375 32.957031 113.578125 Z M 32.957031 111.199219"/></g><g clip-path="url(#d)"><path fill="#FAFAFA" d="M 10.464844 111.199219 L 6.914062 111.199219 L 6.914062 113.578125 C 6.914062 114.234375 7.445312 114.769531 8.097656 114.769531 L 9.28125 114.769531 C 9.933594 114.769531 10.464844 114.234375 10.464844 113.578125 Z M 10.464844 111.199219"/></g><g clip-path="url(#e)"><path fill="#FAFAFA" d="M 30.832031 102.394531 L 32.148438 101.957031 C 32.628906 101.792969 32.957031 101.339844 32.957031 100.828125 L 32.957031 100.496094 C 32.957031 99.839844 32.425781 99.304688 31.773438 99.304688 L 29.40625 99.304688 Z M 30.832031 102.394531"/></g><g clip-path="url(#f)"><path fill="#FAFAFA" d="M 8.925781 102.359375 L 7.722656 101.957031 C 7.238281 101.792969 6.914062 101.339844 6.914062 100.828125 L 6.914062 100.496094 C 6.914062 99.839844 7.445312 99.304688 8.097656 99.304688 L 10.464844 99.304688 Z M 8.925781 102.359375"/></g><g clip-path="url(#g)"><path fill="#FAFAFA" d="M 32.007812 102.792969 L 31.179688 101.683594 L 30.839844 100.496094 L 9.027344 100.496094 L 8.691406 101.683594 L 7.863281 102.792969 C 7.246094 103.617188 6.914062 104.621094 6.914062 105.648438 L 6.914062 112.390625 L 32.957031 112.390625 L 32.957031 105.648438 C 32.957031 104.621094 32.625 103.617188 32.007812 102.792969 Z M 11.058594 107.632812 C 10.078125 107.632812 9.28125 106.832031 9.28125 105.847656 C 9.28125 104.863281 10.078125 104.0625 11.058594 104.0625 C 12.039062 104.0625 12.832031 104.863281 12.832031 105.847656 C 12.832031 106.832031 12.039062 107.632812 11.058594 107.632812 Z M 28.8125 107.632812 C 27.832031 107.632812 27.039062 106.832031 27.039062 105.847656 C 27.039062 104.863281 27.832031 104.0625 28.8125 104.0625 C 29.792969 104.0625 30.589844 104.863281 30.589844 105.847656 C 30.589844 106.832031 29.792969 107.632812 28.8125 107.632812 Z M 28.8125 107.632812"/></g></svg>