<svg xmlns="http://www.w3.org/2000/svg" width="375" viewBox="0 0 375 375" height="375" version="1.0"><defs><clipPath id="a"><path d="M 98.628906 39.28125 L 248.417969 39.28125 L 248.417969 214.3125 L 98.628906 214.3125 Z M 98.628906 39.28125"/></clipPath><clipPath id="b"><path d="M 248.121094 175.601562 L 295.242188 175.601562 L 295.242188 211 L 248.121094 211 Z M 248.121094 175.601562"/></clipPath><clipPath id="c"><path d="M 288 207 L 295.242188 207 L 295.242188 214.3125 L 288 214.3125 Z M 288 207"/></clipPath><clipPath id="d"><path d="M 248.121094 207 L 255 207 L 255 214.3125 L 248.121094 214.3125 Z M 248.121094 207"/></clipPath><clipPath id="e"><path d="M 288 186 L 295.242188 186 L 295.242188 192 L 288 192 Z M 288 186"/></clipPath><clipPath id="f"><path d="M 248.121094 186 L 255 186 L 255 192 L 248.121094 192 Z M 248.121094 186"/></clipPath><clipPath id="g"><path d="M 248.121094 188 L 295.242188 188 L 295.242188 211 L 248.121094 211 Z M 248.121094 188"/></clipPath></defs><path fill="#9C824A" d="M 141.597656 20.679688 C 109.53125 20.679688 83.535156 46.675781 83.535156 78.742188 C 83.535156 110.8125 109.53125 136.804688 141.597656 136.804688 C 173.667969 136.804688 199.664062 110.8125 199.664062 78.742188 C 199.664062 46.675781 173.667969 20.679688 141.597656 20.679688"/><g clip-path="url(#a)"><path fill="#FFF" d="M 225.792969 103.304688 L 225.792969 209.800781 L 214.113281 209.800781 L 214.113281 95.339844 Z M 193.132812 209.800781 L 185.140625 209.800781 L 185.140625 103.671875 L 193.132812 100.625 Z M 193.132812 58.382812 L 193.132812 95.789062 L 180.613281 100.566406 L 180.613281 209.800781 L 177.808594 209.800781 L 177.808594 46.496094 Z M 151.804688 209.800781 L 142.34375 209.800781 L 142.34375 112.480469 L 151.804688 118.929688 Z M 248.394531 209.800781 L 230.320312 209.800781 L 230.320312 100.925781 L 214.113281 89.867188 L 212.152344 88.527344 L 209.585938 89.507812 L 197.660156 94.058594 L 197.660156 56.171875 L 177.808594 40.773438 L 175.875 39.277344 L 173.277344 40.398438 L 137.789062 55.796875 L 137.789062 106.652344 L 112.800781 116.191406 L 112.800781 209.800781 L 98.648438 209.800781 L 98.648438 214.316406 L 117.328125 214.316406 L 117.328125 119.296875 L 137.789062 111.488281 L 137.789062 212.058594 L 137.8125 214.316406 L 156.332031 214.316406 L 156.332031 116.550781 L 142.332031 107 L 142.320312 104.847656 L 142.320312 58.757812 L 173.277344 45.328125 L 173.277344 214.316406 L 197.660156 214.316406 L 197.660156 98.894531 L 209.585938 94.34375 L 209.585938 214.316406 L 248.394531 214.316406 L 248.394531 209.800781"/></g><g fill="#FFF"><g><g><path d="M 18.921875 -21.546875 C 20.648438 -21.546875 22.171875 -21.773438 23.484375 -22.234375 C 24.804688 -22.691406 25.921875 -23.328125 26.828125 -24.140625 C 27.734375 -24.960938 28.414062 -25.945312 28.875 -27.09375 C 29.332031 -28.238281 29.5625 -29.5 29.5625 -30.875 C 29.5625 -33.726562 28.679688 -35.953125 26.921875 -37.546875 C 25.160156 -39.148438 22.492188 -39.953125 18.921875 -39.953125 L 11.734375 -39.953125 L 11.734375 -21.546875 Z M 18.921875 -44.734375 C 21.753906 -44.734375 24.210938 -44.40625 26.296875 -43.75 C 28.390625 -43.09375 30.125 -42.160156 31.5 -40.953125 C 32.875 -39.742188 33.898438 -38.285156 34.578125 -36.578125 C 35.253906 -34.878906 35.59375 -32.976562 35.59375 -30.875 C 35.59375 -28.789062 35.226562 -26.882812 34.5 -25.15625 C 33.769531 -23.4375 32.703125 -21.953125 31.296875 -20.703125 C 29.890625 -19.453125 28.148438 -18.476562 26.078125 -17.78125 C 24.015625 -17.082031 21.628906 -16.734375 18.921875 -16.734375 L 11.734375 -16.734375 L 11.734375 0 L 5.71875 0 L 5.71875 -44.734375 Z M 18.921875 -44.734375" transform="translate(21.84 301.88)"/></g></g></g><g fill="#FFF"><g><g><path d="M 18.109375 -23.078125 C 19.859375 -23.078125 21.398438 -23.285156 22.734375 -23.703125 C 24.078125 -24.128906 25.203125 -24.734375 26.109375 -25.515625 C 27.015625 -26.296875 27.695312 -27.226562 28.15625 -28.3125 C 28.613281 -29.394531 28.84375 -30.59375 28.84375 -31.90625 C 28.84375 -34.570312 27.96875 -36.578125 26.21875 -37.921875 C 24.46875 -39.273438 21.847656 -39.953125 18.359375 -39.953125 L 11.734375 -39.953125 L 11.734375 -23.078125 Z M 38.78125 0 L 33.40625 0 C 32.300781 0 31.488281 -0.425781 30.96875 -1.28125 L 19.359375 -17.265625 C 19.003906 -17.765625 18.625 -18.125 18.21875 -18.34375 C 17.8125 -18.5625 17.179688 -18.671875 16.328125 -18.671875 L 11.734375 -18.671875 L 11.734375 0 L 5.71875 0 L 5.71875 -44.734375 L 18.359375 -44.734375 C 21.191406 -44.734375 23.632812 -44.445312 25.6875 -43.875 C 27.75 -43.300781 29.453125 -42.472656 30.796875 -41.390625 C 32.140625 -40.304688 33.132812 -39 33.78125 -37.46875 C 34.425781 -35.945312 34.75 -34.238281 34.75 -32.34375 C 34.75 -30.757812 34.5 -29.28125 34 -27.90625 C 33.5 -26.53125 32.773438 -25.296875 31.828125 -24.203125 C 30.878906 -23.117188 29.722656 -22.191406 28.359375 -21.421875 C 26.992188 -20.648438 25.445312 -20.066406 23.71875 -19.671875 C 24.488281 -19.234375 25.15625 -18.597656 25.71875 -17.765625 Z M 38.78125 0" transform="translate(66.134 301.88)"/></g></g></g><g fill="#FFF"><g><g><path d="M 11.734375 -25.125 L 14.015625 -25.125 C 14.804688 -25.125 15.441406 -25.222656 15.921875 -25.421875 C 16.398438 -25.617188 16.835938 -25.957031 17.234375 -26.4375 L 32.125 -43.296875 C 32.539062 -43.835938 32.976562 -44.210938 33.4375 -44.421875 C 33.894531 -44.628906 34.457031 -44.734375 35.125 -44.734375 L 40.234375 -44.734375 L 23.203125 -25.46875 C 22.785156 -24.96875 22.382812 -24.554688 22 -24.234375 C 21.613281 -23.910156 21.203125 -23.644531 20.765625 -23.4375 C 21.328125 -23.257812 21.835938 -22.988281 22.296875 -22.625 C 22.753906 -22.257812 23.195312 -21.785156 23.625 -21.203125 L 41.421875 0 L 36.1875 0 C 35.789062 0 35.453125 -0.0234375 35.171875 -0.078125 C 34.890625 -0.128906 34.644531 -0.210938 34.4375 -0.328125 C 34.226562 -0.441406 34.046875 -0.578125 33.890625 -0.734375 C 33.734375 -0.890625 33.582031 -1.070312 33.4375 -1.28125 L 18.015625 -19.046875 C 17.597656 -19.566406 17.148438 -19.9375 16.671875 -20.15625 C 16.191406 -20.375 15.460938 -20.484375 14.484375 -20.484375 L 11.734375 -20.484375 L 11.734375 0 L 5.71875 0 L 5.71875 -44.734375 L 11.734375 -44.734375 Z M 11.734375 -25.125" transform="translate(112.052 301.88)"/></g></g></g><g fill="#FFF"><g><g><path d="M 37.125 -9.234375 C 37.457031 -9.234375 37.75 -9.097656 38 -8.828125 L 40.390625 -6.25 C 38.566406 -4.125 36.347656 -2.46875 33.734375 -1.28125 C 31.117188 -0.09375 27.957031 0.5 24.25 0.5 C 21.050781 0.5 18.140625 -0.0546875 15.515625 -1.171875 C 12.890625 -2.285156 10.648438 -3.84375 8.796875 -5.84375 C 6.953125 -7.851562 5.519531 -10.265625 4.5 -13.078125 C 3.476562 -15.890625 2.96875 -18.984375 2.96875 -22.359375 C 2.96875 -25.722656 3.5 -28.8125 4.5625 -31.625 C 5.625 -34.4375 7.113281 -36.847656 9.03125 -38.859375 C 10.957031 -40.878906 13.265625 -42.445312 15.953125 -43.5625 C 18.640625 -44.675781 21.601562 -45.234375 24.84375 -45.234375 C 28.03125 -45.234375 30.84375 -44.722656 33.28125 -43.703125 C 35.71875 -42.679688 37.859375 -41.296875 39.703125 -39.546875 L 37.71875 -36.78125 C 37.59375 -36.570312 37.429688 -36.398438 37.234375 -36.265625 C 37.035156 -36.128906 36.769531 -36.0625 36.4375 -36.0625 C 36.0625 -36.0625 35.601562 -36.265625 35.0625 -36.671875 C 34.519531 -37.078125 33.8125 -37.53125 32.9375 -38.03125 C 32.0625 -38.53125 30.96875 -38.976562 29.65625 -39.375 C 28.34375 -39.78125 26.726562 -39.984375 24.8125 -39.984375 C 22.507812 -39.984375 20.398438 -39.582031 18.484375 -38.78125 C 16.566406 -37.988281 14.914062 -36.832031 13.53125 -35.3125 C 12.144531 -33.789062 11.066406 -31.9375 10.296875 -29.75 C 9.523438 -27.5625 9.140625 -25.097656 9.140625 -22.359375 C 9.140625 -19.566406 9.539062 -17.078125 10.34375 -14.890625 C 11.144531 -12.703125 12.238281 -10.851562 13.625 -9.34375 C 15.007812 -7.84375 16.644531 -6.695312 18.53125 -5.90625 C 20.414062 -5.113281 22.445312 -4.71875 24.625 -4.71875 C 25.957031 -4.71875 27.160156 -4.796875 28.234375 -4.953125 C 29.304688 -5.109375 30.296875 -5.351562 31.203125 -5.6875 C 32.109375 -6.019531 32.953125 -6.441406 33.734375 -6.953125 C 34.515625 -7.460938 35.289062 -8.066406 36.0625 -8.765625 C 36.414062 -9.078125 36.769531 -9.234375 37.125 -9.234375 Z M 37.125 -9.234375" transform="translate(183.006 301.88)"/></g></g></g><g fill="#FFF"><g><g><path d="M 35.96875 -39.640625 L 21.484375 -39.640625 L 21.484375 0 L 15.453125 0 L 15.453125 -39.640625 L 0.9375 -39.640625 L 0.9375 -44.734375 L 35.96875 -44.734375 Z M 35.96875 -39.640625" transform="translate(231.514 301.88)"/></g></g></g><g fill="#FFF"><g><g><path d="M 18.109375 -23.078125 C 19.859375 -23.078125 21.398438 -23.285156 22.734375 -23.703125 C 24.078125 -24.128906 25.203125 -24.734375 26.109375 -25.515625 C 27.015625 -26.296875 27.695312 -27.226562 28.15625 -28.3125 C 28.613281 -29.394531 28.84375 -30.59375 28.84375 -31.90625 C 28.84375 -34.570312 27.96875 -36.578125 26.21875 -37.921875 C 24.46875 -39.273438 21.847656 -39.953125 18.359375 -39.953125 L 11.734375 -39.953125 L 11.734375 -23.078125 Z M 38.78125 0 L 33.40625 0 C 32.300781 0 31.488281 -0.425781 30.96875 -1.28125 L 19.359375 -17.265625 C 19.003906 -17.765625 18.625 -18.125 18.21875 -18.34375 C 17.8125 -18.5625 17.179688 -18.671875 16.328125 -18.671875 L 11.734375 -18.671875 L 11.734375 0 L 5.71875 0 L 5.71875 -44.734375 L 18.359375 -44.734375 C 21.191406 -44.734375 23.632812 -44.445312 25.6875 -43.875 C 27.75 -43.300781 29.453125 -42.472656 30.796875 -41.390625 C 32.140625 -40.304688 33.132812 -39 33.78125 -37.46875 C 34.425781 -35.945312 34.75 -34.238281 34.75 -32.34375 C 34.75 -30.757812 34.5 -29.28125 34 -27.90625 C 33.5 -26.53125 32.773438 -25.296875 31.828125 -24.203125 C 30.878906 -23.117188 29.722656 -22.191406 28.359375 -21.421875 C 26.992188 -20.648438 25.445312 -20.066406 23.71875 -19.671875 C 24.488281 -19.234375 25.15625 -18.597656 25.71875 -17.765625 Z M 38.78125 0" transform="translate(275.185 301.88)"/></g></g></g><g fill="#FFF"><g><g><path d="M 31.09375 -5.09375 L 31.09375 0 L 5.71875 0 L 5.71875 -44.734375 L 11.734375 -44.734375 L 11.734375 -5.09375 Z M 31.09375 -5.09375" transform="translate(321.103 301.88)"/></g></g></g><g fill="#FFF"><g><g><path d="M 2.21875 -13.671875 L 6.28125 -2.15625 L 6.4375 -2.15625 L 10.5 -13.671875 L 12.234375 -13.671875 L 7.203125 0 L 5.5 0 L 0.484375 -13.671875 Z M 2.21875 -13.671875" transform="translate(74.187 331.266)"/></g></g></g><g fill="#FFF"><g><g><path d="M 3.3125 -13.671875 L 3.3125 0 L 1.65625 0 L 1.65625 -13.671875 Z M 3.3125 -13.671875" transform="translate(91.63 331.266)"/></g></g></g><g fill="#FFF"><g><g><path d="M 9.125 -10.25 C 9.050781 -10.925781 8.726562 -11.453125 8.15625 -11.828125 C 7.582031 -12.203125 6.882812 -12.390625 6.0625 -12.390625 C 5.15625 -12.390625 4.425781 -12.171875 3.875 -11.734375 C 3.320312 -11.304688 3.046875 -10.769531 3.046875 -10.125 C 3.046875 -9.632812 3.191406 -9.238281 3.484375 -8.9375 C 3.785156 -8.632812 4.144531 -8.398438 4.5625 -8.234375 C 4.976562 -8.066406 5.351562 -7.9375 5.6875 -7.84375 L 7.078125 -7.46875 C 7.429688 -7.375 7.828125 -7.242188 8.265625 -7.078125 C 8.703125 -6.921875 9.117188 -6.703125 9.515625 -6.421875 C 9.921875 -6.140625 10.253906 -5.773438 10.515625 -5.328125 C 10.785156 -4.890625 10.921875 -4.351562 10.921875 -3.71875 C 10.921875 -2.976562 10.726562 -2.304688 10.34375 -1.703125 C 9.957031 -1.109375 9.394531 -0.632812 8.65625 -0.28125 C 7.925781 0.0625 7.035156 0.234375 5.984375 0.234375 C 4.515625 0.234375 3.347656 -0.109375 2.484375 -0.796875 C 1.617188 -1.492188 1.144531 -2.40625 1.0625 -3.53125 L 2.78125 -3.53125 C 2.820312 -3.007812 2.992188 -2.578125 3.296875 -2.234375 C 3.609375 -1.898438 4 -1.648438 4.46875 -1.484375 C 4.9375 -1.328125 5.441406 -1.25 5.984375 -1.25 C 6.609375 -1.25 7.171875 -1.351562 7.671875 -1.5625 C 8.179688 -1.769531 8.582031 -2.054688 8.875 -2.421875 C 9.164062 -2.796875 9.3125 -3.234375 9.3125 -3.734375 C 9.3125 -4.191406 9.1875 -4.5625 8.9375 -4.84375 C 8.6875 -5.125 8.351562 -5.351562 7.9375 -5.53125 C 7.519531 -5.71875 7.070312 -5.875 6.59375 -6 L 4.90625 -6.484375 C 3.84375 -6.796875 3 -7.234375 2.375 -7.796875 C 1.75 -8.367188 1.4375 -9.117188 1.4375 -10.046875 C 1.4375 -10.804688 1.644531 -11.472656 2.0625 -12.046875 C 2.476562 -12.617188 3.039062 -13.0625 3.75 -13.375 C 4.457031 -13.695312 5.242188 -13.859375 6.109375 -13.859375 C 6.992188 -13.859375 7.773438 -13.703125 8.453125 -13.390625 C 9.140625 -13.078125 9.6875 -12.644531 10.09375 -12.09375 C 10.5 -11.550781 10.710938 -10.9375 10.734375 -10.25 Z M 9.125 -10.25" transform="translate(101.333 331.266)"/></g></g></g><g fill="#FFF"><g><g><path d="M 3.3125 -13.671875 L 3.3125 0 L 1.65625 0 L 1.65625 -13.671875 Z M 3.3125 -13.671875" transform="translate(118.056 331.266)"/></g></g></g><g fill="#FFF"><g><g><path d="M 0.90625 -12.203125 L 0.90625 -13.671875 L 11.15625 -13.671875 L 11.15625 -12.203125 L 6.859375 -12.203125 L 6.859375 0 L 5.203125 0 L 5.203125 -12.203125 Z M 0.90625 -12.203125" transform="translate(127.758 331.266)"/></g></g></g><g fill="#FFF"><g><g><path d="M 13.1875 -6.828125 C 13.1875 -5.390625 12.925781 -4.144531 12.40625 -3.09375 C 11.882812 -2.039062 11.171875 -1.226562 10.265625 -0.65625 C 9.359375 -0.09375 8.320312 0.1875 7.15625 0.1875 C 5.988281 0.1875 4.953125 -0.09375 4.046875 -0.65625 C 3.140625 -1.226562 2.425781 -2.039062 1.90625 -3.09375 C 1.382812 -4.144531 1.125 -5.390625 1.125 -6.828125 C 1.125 -8.273438 1.382812 -9.523438 1.90625 -10.578125 C 2.425781 -11.628906 3.140625 -12.4375 4.046875 -13 C 4.953125 -13.570312 5.988281 -13.859375 7.15625 -13.859375 C 8.320312 -13.859375 9.359375 -13.570312 10.265625 -13 C 11.171875 -12.4375 11.882812 -11.628906 12.40625 -10.578125 C 12.925781 -9.523438 13.1875 -8.273438 13.1875 -6.828125 Z M 11.59375 -6.828125 C 11.59375 -8.015625 11.394531 -9.015625 11 -9.828125 C 10.601562 -10.640625 10.066406 -11.253906 9.390625 -11.671875 C 8.722656 -12.097656 7.976562 -12.3125 7.15625 -12.3125 C 6.320312 -12.3125 5.570312 -12.097656 4.90625 -11.671875 C 4.238281 -11.253906 3.707031 -10.640625 3.3125 -9.828125 C 2.914062 -9.015625 2.71875 -8.015625 2.71875 -6.828125 C 2.71875 -5.648438 2.914062 -4.648438 3.3125 -3.828125 C 3.707031 -3.015625 4.238281 -2.398438 4.90625 -1.984375 C 5.570312 -1.566406 6.320312 -1.359375 7.15625 -1.359375 C 7.976562 -1.359375 8.722656 -1.566406 9.390625 -1.984375 C 10.066406 -2.398438 10.601562 -3.015625 11 -3.828125 C 11.394531 -4.648438 11.59375 -5.648438 11.59375 -6.828125 Z M 11.59375 -6.828125" transform="translate(144.561 331.266)"/></g></g></g><g fill="#FFF"><g><g><path d="M 1.65625 0 L 1.65625 -13.671875 L 6.28125 -13.671875 C 7.34375 -13.671875 8.21875 -13.488281 8.90625 -13.125 C 9.59375 -12.757812 10.097656 -12.257812 10.421875 -11.625 C 10.753906 -11 10.921875 -10.285156 10.921875 -9.484375 C 10.921875 -8.566406 10.710938 -7.769531 10.296875 -7.09375 C 9.878906 -6.425781 9.234375 -5.941406 8.359375 -5.640625 L 11.453125 0 L 9.53125 0 L 6.640625 -5.34375 C 6.535156 -5.34375 6.421875 -5.34375 6.296875 -5.34375 L 3.3125 -5.34375 L 3.3125 0 Z M 3.3125 -6.828125 L 6.25 -6.828125 C 7.34375 -6.828125 8.125 -7.0625 8.59375 -7.53125 C 9.0625 -8.007812 9.296875 -8.660156 9.296875 -9.484375 C 9.296875 -10.304688 9.0625 -10.960938 8.59375 -11.453125 C 8.125 -11.953125 7.332031 -12.203125 6.21875 -12.203125 L 3.3125 -12.203125 Z M 3.3125 -6.828125" transform="translate(163.607 331.266)"/></g></g></g><g fill="#FFF"><g><g><path d="M 1.65625 0 L 1.65625 -13.671875 L 6.28125 -13.671875 C 7.351562 -13.671875 8.226562 -13.476562 8.90625 -13.09375 C 9.59375 -12.707031 10.097656 -12.1875 10.421875 -11.53125 C 10.753906 -10.875 10.921875 -10.144531 10.921875 -9.34375 C 10.921875 -8.539062 10.753906 -7.804688 10.421875 -7.140625 C 10.097656 -6.484375 9.59375 -5.960938 8.90625 -5.578125 C 8.226562 -5.191406 7.359375 -5 6.296875 -5 L 3.3125 -5 L 3.3125 0 Z M 3.3125 -6.46875 L 6.25 -6.46875 C 7.34375 -6.46875 8.125 -6.738281 8.59375 -7.28125 C 9.0625 -7.832031 9.296875 -8.519531 9.296875 -9.34375 C 9.296875 -10.164062 9.0625 -10.847656 8.59375 -11.390625 C 8.125 -11.929688 7.332031 -12.203125 6.21875 -12.203125 L 3.3125 -12.203125 Z M 3.3125 -6.46875" transform="translate(190.38 331.266)"/></g></g></g><g fill="#FFF"><g><g><path d="M 2.21875 0 L 0.484375 0 L 5.5 -13.671875 L 7.203125 -13.671875 L 12.234375 0 L 10.5 0 L 9.125 -3.875 L 3.59375 -3.875 Z M 4.109375 -5.34375 L 8.59375 -5.34375 L 6.40625 -11.5 L 6.296875 -11.5 Z M 4.109375 -5.34375" transform="translate(207.05 331.266)"/></g></g></g><g fill="#FFF"><g><g><path d="M 1.65625 0 L 1.65625 -13.671875 L 6.28125 -13.671875 C 7.34375 -13.671875 8.21875 -13.488281 8.90625 -13.125 C 9.59375 -12.757812 10.097656 -12.257812 10.421875 -11.625 C 10.753906 -11 10.921875 -10.285156 10.921875 -9.484375 C 10.921875 -8.566406 10.710938 -7.769531 10.296875 -7.09375 C 9.878906 -6.425781 9.234375 -5.941406 8.359375 -5.640625 L 11.453125 0 L 9.53125 0 L 6.640625 -5.34375 C 6.535156 -5.34375 6.421875 -5.34375 6.296875 -5.34375 L 3.3125 -5.34375 L 3.3125 0 Z M 3.3125 -6.828125 L 6.25 -6.828125 C 7.34375 -6.828125 8.125 -7.0625 8.59375 -7.53125 C 9.0625 -8.007812 9.296875 -8.660156 9.296875 -9.484375 C 9.296875 -10.304688 9.0625 -10.960938 8.59375 -11.453125 C 8.125 -11.953125 7.332031 -12.203125 6.21875 -12.203125 L 3.3125 -12.203125 Z M 3.3125 -6.828125" transform="translate(224.494 331.266)"/></g></g></g><g fill="#FFF"><g><g><path d="M 1.65625 0 L 1.65625 -13.671875 L 3.3125 -13.671875 L 3.3125 -6.890625 L 3.46875 -6.890625 L 9.609375 -13.671875 L 11.78125 -13.671875 L 6.03125 -7.5 L 11.78125 0 L 9.765625 0 L 5.015625 -6.359375 L 3.3125 -4.4375 L 3.3125 0 Z M 1.65625 0" transform="translate(241.244 331.266)"/></g></g></g><g fill="#FFF"><g><g><path d="M 3.3125 -13.671875 L 3.3125 0 L 1.65625 0 L 1.65625 -13.671875 Z M 3.3125 -13.671875" transform="translate(258.234 331.266)"/></g></g></g><g fill="#FFF"><g><g><path d="M 12.5 -13.671875 L 12.5 0 L 10.890625 0 L 3.4375 -10.734375 L 3.3125 -10.734375 L 3.3125 0 L 1.65625 0 L 1.65625 -13.671875 L 3.25 -13.671875 L 10.734375 -2.90625 L 10.859375 -2.90625 L 10.859375 -13.671875 Z M 12.5 -13.671875" transform="translate(267.936 331.266)"/></g></g></g><g fill="#FFF"><g><g><path d="M 11 -9.390625 C 10.707031 -10.296875 10.226562 -11.007812 9.5625 -11.53125 C 8.90625 -12.050781 8.085938 -12.3125 7.109375 -12.3125 C 6.296875 -12.3125 5.554688 -12.097656 4.890625 -11.671875 C 4.222656 -11.253906 3.691406 -10.640625 3.296875 -9.828125 C 2.910156 -9.015625 2.71875 -8.015625 2.71875 -6.828125 C 2.71875 -5.648438 2.914062 -4.648438 3.3125 -3.828125 C 3.707031 -3.015625 4.242188 -2.398438 4.921875 -1.984375 C 5.597656 -1.566406 6.359375 -1.359375 7.203125 -1.359375 C 7.972656 -1.359375 8.65625 -1.519531 9.25 -1.84375 C 9.84375 -2.175781 10.304688 -2.640625 10.640625 -3.234375 C 10.984375 -3.835938 11.164062 -4.546875 11.1875 -5.359375 L 7.578125 -5.359375 L 7.578125 -6.828125 L 12.796875 -6.828125 L 12.796875 -5.359375 C 12.796875 -4.234375 12.554688 -3.253906 12.078125 -2.421875 C 11.597656 -1.597656 10.9375 -0.957031 10.09375 -0.5 C 9.257812 -0.0390625 8.296875 0.1875 7.203125 0.1875 C 5.992188 0.1875 4.929688 -0.09375 4.015625 -0.65625 C 3.109375 -1.226562 2.398438 -2.039062 1.890625 -3.09375 C 1.378906 -4.144531 1.125 -5.390625 1.125 -6.828125 C 1.125 -8.273438 1.378906 -9.523438 1.890625 -10.578125 C 2.398438 -11.628906 3.101562 -12.4375 4 -13 C 4.90625 -13.570312 5.941406 -13.859375 7.109375 -13.859375 C 8.066406 -13.859375 8.9375 -13.671875 9.71875 -13.296875 C 10.5 -12.921875 11.148438 -12.394531 11.671875 -11.71875 C 12.191406 -11.050781 12.535156 -10.273438 12.703125 -9.390625 Z M 11 -9.390625" transform="translate(286.821 331.266)"/></g></g></g><g fill="#FFF"><g><g><path d="M 1.65625 -13.671875 L 3.625 -13.671875 L 8.28125 -2.328125 L 8.4375 -2.328125 L 13.078125 -13.671875 L 15.0625 -13.671875 L 15.0625 0 L 13.515625 0 L 13.515625 -10.390625 L 13.375 -10.390625 L 9.109375 0 L 7.609375 0 L 3.34375 -10.390625 L 3.203125 -10.390625 L 3.203125 0 L 1.65625 0 Z M 1.65625 -13.671875" transform="translate(97.925 350.06)"/></g></g></g><g fill="#FFF"><g><g><path d="M 2.21875 0 L 0.484375 0 L 5.5 -13.671875 L 7.203125 -13.671875 L 12.234375 0 L 10.5 0 L 9.125 -3.875 L 3.59375 -3.875 Z M 4.109375 -5.34375 L 8.59375 -5.34375 L 6.40625 -11.5 L 6.296875 -11.5 Z M 4.109375 -5.34375" transform="translate(119.801 350.06)"/></g></g></g><g fill="#FFF"><g><g><path d="M 12.5 -13.671875 L 12.5 0 L 10.890625 0 L 3.4375 -10.734375 L 3.3125 -10.734375 L 3.3125 0 L 1.65625 0 L 1.65625 -13.671875 L 3.25 -13.671875 L 10.734375 -2.90625 L 10.859375 -2.90625 L 10.859375 -13.671875 Z M 12.5 -13.671875" transform="translate(137.245 350.06)"/></g></g></g><g fill="#FFF"><g><g><path d="M 2.21875 0 L 0.484375 0 L 5.5 -13.671875 L 7.203125 -13.671875 L 12.234375 0 L 10.5 0 L 9.125 -3.875 L 3.59375 -3.875 Z M 4.109375 -5.34375 L 8.59375 -5.34375 L 6.40625 -11.5 L 6.296875 -11.5 Z M 4.109375 -5.34375" transform="translate(156.13 350.06)"/></g></g></g><g fill="#FFF"><g><g><path d="M 11 -9.390625 C 10.707031 -10.296875 10.226562 -11.007812 9.5625 -11.53125 C 8.90625 -12.050781 8.085938 -12.3125 7.109375 -12.3125 C 6.296875 -12.3125 5.554688 -12.097656 4.890625 -11.671875 C 4.222656 -11.253906 3.691406 -10.640625 3.296875 -9.828125 C 2.910156 -9.015625 2.71875 -8.015625 2.71875 -6.828125 C 2.71875 -5.648438 2.914062 -4.648438 3.3125 -3.828125 C 3.707031 -3.015625 4.242188 -2.398438 4.921875 -1.984375 C 5.597656 -1.566406 6.359375 -1.359375 7.203125 -1.359375 C 7.972656 -1.359375 8.65625 -1.519531 9.25 -1.84375 C 9.84375 -2.175781 10.304688 -2.640625 10.640625 -3.234375 C 10.984375 -3.835938 11.164062 -4.546875 11.1875 -5.359375 L 7.578125 -5.359375 L 7.578125 -6.828125 L 12.796875 -6.828125 L 12.796875 -5.359375 C 12.796875 -4.234375 12.554688 -3.253906 12.078125 -2.421875 C 11.597656 -1.597656 10.9375 -0.957031 10.09375 -0.5 C 9.257812 -0.0390625 8.296875 0.1875 7.203125 0.1875 C 5.992188 0.1875 4.929688 -0.09375 4.015625 -0.65625 C 3.109375 -1.226562 2.398438 -2.039062 1.890625 -3.09375 C 1.378906 -4.144531 1.125 -5.390625 1.125 -6.828125 C 1.125 -8.273438 1.378906 -9.523438 1.890625 -10.578125 C 2.398438 -11.628906 3.101562 -12.4375 4 -13 C 4.90625 -13.570312 5.941406 -13.859375 7.109375 -13.859375 C 8.066406 -13.859375 8.9375 -13.671875 9.71875 -13.296875 C 10.5 -12.921875 11.148438 -12.394531 11.671875 -11.71875 C 12.191406 -11.050781 12.535156 -10.273438 12.703125 -9.390625 Z M 11 -9.390625" transform="translate(173.575 350.06)"/></g></g></g><g fill="#FFF"><g><g><path d="M 1.65625 0 L 1.65625 -13.671875 L 9.90625 -13.671875 L 9.90625 -12.203125 L 3.3125 -12.203125 L 3.3125 -7.578125 L 9.484375 -7.578125 L 9.484375 -6.109375 L 3.3125 -6.109375 L 3.3125 -1.46875 L 10.015625 -1.46875 L 10.015625 0 Z M 1.65625 0" transform="translate(192.274 350.06)"/></g></g></g><g fill="#FFF"><g><g><path d="M 1.65625 -13.671875 L 3.625 -13.671875 L 8.28125 -2.328125 L 8.4375 -2.328125 L 13.078125 -13.671875 L 15.0625 -13.671875 L 15.0625 0 L 13.515625 0 L 13.515625 -10.390625 L 13.375 -10.390625 L 9.109375 0 L 7.609375 0 L 3.34375 -10.390625 L 3.203125 -10.390625 L 3.203125 0 L 1.65625 0 Z M 1.65625 -13.671875" transform="translate(208.25 350.06)"/></g></g></g><g fill="#FFF"><g><g><path d="M 1.65625 0 L 1.65625 -13.671875 L 9.90625 -13.671875 L 9.90625 -12.203125 L 3.3125 -12.203125 L 3.3125 -7.578125 L 9.484375 -7.578125 L 9.484375 -6.109375 L 3.3125 -6.109375 L 3.3125 -1.46875 L 10.015625 -1.46875 L 10.015625 0 Z M 1.65625 0" transform="translate(230.125 350.06)"/></g></g></g><g fill="#FFF"><g><g><path d="M 12.5 -13.671875 L 12.5 0 L 10.890625 0 L 3.4375 -10.734375 L 3.3125 -10.734375 L 3.3125 0 L 1.65625 0 L 1.65625 -13.671875 L 3.25 -13.671875 L 10.734375 -2.90625 L 10.859375 -2.90625 L 10.859375 -13.671875 Z M 12.5 -13.671875" transform="translate(246.101 350.06)"/></g></g></g><g fill="#FFF"><g><g><path d="M 0.90625 -12.203125 L 0.90625 -13.671875 L 11.15625 -13.671875 L 11.15625 -12.203125 L 6.859375 -12.203125 L 6.859375 0 L 5.203125 0 L 5.203125 -12.203125 Z M 0.90625 -12.203125" transform="translate(264.987 350.06)"/></g></g></g><g clip-path="url(#b)"><path fill="#FFF" d="M 282.890625 177.753906 C 284.789062 177.753906 286.484375 179.035156 287.003906 180.871094 L 289.953125 191.246094 L 290.0625 191.628906 L 290.300781 191.945312 L 291.800781 193.953125 C 292.628906 195.0625 293.082031 196.4375 293.082031 197.824219 L 293.082031 207.859375 L 250.28125 207.859375 L 250.28125 197.824219 C 250.28125 196.4375 250.734375 195.0625 251.5625 193.953125 L 253.0625 191.945312 L 253.300781 191.628906 L 253.410156 191.246094 L 256.359375 180.871094 C 256.878906 179.035156 258.574219 177.753906 260.472656 177.753906 L 282.890625 177.753906 M 282.890625 175.601562 L 260.472656 175.601562 C 257.605469 175.601562 255.085938 177.511719 254.300781 180.28125 L 251.351562 190.65625 L 249.851562 192.660156 C 248.742188 194.148438 248.140625 195.960938 248.140625 197.824219 L 248.140625 210.011719 L 295.222656 210.011719 L 295.222656 197.824219 C 295.222656 195.960938 294.621094 194.148438 293.511719 192.660156 L 292.011719 190.65625 L 289.0625 180.28125 C 288.277344 177.511719 285.757812 175.601562 282.890625 175.601562 Z M 282.890625 175.601562"/></g><g clip-path="url(#c)"><path fill="#FFF" d="M 295.222656 207.859375 L 288.800781 207.859375 L 288.800781 212.160156 C 288.800781 213.347656 289.761719 214.3125 290.941406 214.3125 L 293.082031 214.3125 C 294.265625 214.3125 295.222656 213.347656 295.222656 212.160156 Z M 295.222656 207.859375"/></g><g clip-path="url(#d)"><path fill="#FFF" d="M 254.558594 207.859375 L 248.140625 207.859375 L 248.140625 212.160156 C 248.140625 213.347656 249.097656 214.3125 250.28125 214.3125 L 252.417969 214.3125 C 253.601562 214.3125 254.558594 213.347656 254.558594 212.160156 Z M 254.558594 207.859375"/></g><g clip-path="url(#e)"><path fill="#FFF" d="M 291.382812 191.941406 L 293.761719 191.144531 C 294.632812 190.851562 295.222656 190.03125 295.222656 189.105469 L 295.222656 188.503906 C 295.222656 187.316406 294.265625 186.355469 293.082031 186.355469 L 288.800781 186.355469 Z M 291.382812 191.941406"/></g><g clip-path="url(#f)"><path fill="#FFF" d="M 251.777344 191.875 L 249.601562 191.144531 C 248.726562 190.851562 248.140625 190.03125 248.140625 189.105469 L 248.140625 188.503906 C 248.140625 187.316406 249.097656 186.355469 250.28125 186.355469 L 254.558594 186.355469 Z M 251.777344 191.875"/></g><g clip-path="url(#g)"><path fill="#FFF" d="M 293.511719 192.660156 L 292.011719 190.65625 L 291.402344 188.503906 L 251.960938 188.503906 L 251.351562 190.65625 L 249.851562 192.660156 C 248.742188 194.148438 248.140625 195.960938 248.140625 197.824219 L 248.140625 210.011719 L 295.222656 210.011719 L 295.222656 197.824219 C 295.222656 195.960938 294.621094 194.152344 293.511719 192.660156 Z M 255.628906 201.40625 C 253.859375 201.40625 252.417969 199.960938 252.417969 198.183594 C 252.417969 196.402344 253.859375 194.957031 255.628906 194.957031 C 257.402344 194.957031 258.839844 196.402344 258.839844 198.183594 C 258.839844 199.960938 257.402344 201.40625 255.628906 201.40625 Z M 287.734375 201.40625 C 285.960938 201.40625 284.523438 199.960938 284.523438 198.183594 C 284.523438 196.402344 285.960938 194.957031 287.734375 194.957031 C 289.503906 194.957031 290.941406 196.402344 290.941406 198.183594 C 290.941406 199.960938 289.503906 201.40625 287.734375 201.40625 Z M 287.734375 201.40625"/></g></svg>