<svg xmlns="http://www.w3.org/2000/svg" width="187.5" viewBox="0 0 187.5 187.5" height="187.5" version="1.0"><defs><clipPath id="a"><path d="M 0 0 L 187 0 L 187 187 L 0 187 Z M 0 0"/></clipPath></defs><g clip-path="url(#a)"><path fill="#FFB932" d="M 154.058594 68.566406 L 87.992188 136.746094 C 85.59375 139.226562 82.28125 140.625 78.835938 140.625 L 78.753906 140.625 C 75.257812 140.625 71.925781 139.175781 69.546875 136.613281 L 33.324219 98.261719 C 28.480469 93.132812 28.699219 85.042969 33.839844 80.199219 C 38.96875 75.355469 47.058594 75.574219 51.902344 80.714844 L 78.96875 109.347656 L 135.714844 50.753906 C 140.660156 45.691406 148.75 45.59375 153.792969 50.519531 C 158.835938 55.449219 158.953125 63.503906 154.058594 68.566406 Z M 93.75 0 C 41.980469 0 0 41.964844 0 93.75 C 0 145.519531 41.980469 187.5 93.75 187.5 C 145.535156 187.5 187.5 145.519531 187.5 93.75 C 187.5 41.980469 145.535156 0 93.75 0"/></g></svg>