<svg xmlns="http://www.w3.org/2000/svg" width="75" viewBox="0 0 75 75" height="75" version="1.0"><path fill="#FFB932" d="M 61.707031 13.382812 C 48.363281 0.0390625 26.726562 0.0390625 13.382812 13.382812 C 0.0390625 26.726562 0.0390625 48.363281 13.382812 61.707031 C 26.726562 75.050781 48.363281 75.050781 61.707031 61.707031 C 75.050781 48.363281 75.050781 26.726562 61.707031 13.382812 Z M 59.476562 50.308594 C 59.902344 50.730469 59.902344 51.417969 59.476562 51.839844 L 51.839844 59.476562 C 51.417969 59.898438 50.730469 59.898438 50.308594 59.476562 L 37.542969 46.714844 L 24.78125 59.476562 C 24.359375 59.898438 23.671875 59.898438 23.25 59.476562 L 15.613281 51.839844 C 15.1875 51.417969 15.1875 50.730469 15.613281 50.308594 L 28.375 37.542969 L 15.613281 24.78125 C 15.1875 24.359375 15.1875 23.671875 15.613281 23.25 L 23.25 15.613281 C 23.671875 15.183594 24.359375 15.183594 24.78125 15.613281 L 37.542969 28.371094 L 50.308594 15.613281 C 50.730469 15.183594 51.417969 15.183594 51.839844 15.613281 L 59.476562 23.25 C 59.902344 23.671875 59.902344 24.359375 59.476562 24.78125 L 46.71875 37.542969 Z M 59.476562 50.308594"/></svg>